<?xml version="1.0" encoding="UTF-8" standalone="no"?>
<svg
   xmlns:dc="http://purl.org/dc/elements/1.1/"
   xmlns:cc="http://creativecommons.org/ns#"
   xmlns:rdf="http://www.w3.org/1999/02/22-rdf-syntax-ns#"
   xmlns:svg="http://www.w3.org/2000/svg"
   xmlns="http://www.w3.org/2000/svg"
   viewBox="0 0 601.18262 129.74126"
   height="129.74126"
   width="601.18262"
   xml:space="preserve"
   version="1.1"
   id="svg2"><metadata
     id="metadata8"><rdf:RDF><cc:Work
         rdf:about=""><dc:format>image/svg+xml</dc:format><dc:type
           rdf:resource="http://purl.org/dc/dcmitype/StillImage" /><dc:title></dc:title></cc:Work></rdf:RDF></metadata><defs
     id="defs6" /><g
     transform="matrix(1.25,0,0,-1.25,-57.705125,177.6275)"
     id="g10"><path
       d="M 71.5273,86.0352 67.3691,86.032 c -0.4902,0 -0.9101,0.0215 -1.03,0.5774 -0.1594,0.7219 0.5242,0.8691 0.5242,0.8691 -0.0606,-0.0422 -0.2285,-0.3625 -0.0938,-0.6941 0.1192,-0.2973 0.3672,-0.2563 0.7774,-0.2563 l 4.6496,0.0063 c 0,-0.4504 -0.6692,-0.4992 -0.6692,-0.4992"
       style="fill:#ffffff;fill-opacity:1;fill-rule:nonzero;stroke:none"
       id="path16" /><path
       d="m 70.4043,67.9699 -2.0234,0 c -0.3438,0.0039 -0.6543,0.068 -0.7813,0.4481 -0.1523,0.4558 0.3567,0.564 0.3567,0.564 -0.0391,-0.03 -0.1047,-0.1761 -0.011,-0.407 0.086,-0.2141 0.2735,-0.2012 0.5625,-0.2031 l 2.3684,-0.011 c 0.0015,-0.391 -0.4719,-0.391 -0.4719,-0.391"
       style="fill:#ffffff;fill-opacity:1;fill-rule:nonzero;stroke:none"
       id="path18" /><path
       d="m 73.0664,88.3918 c 0.6914,0.625 1.3215,1.7 0.8848,3.2195 l -0.0176,0.0481 c -0.0066,0.0136 -0.6895,1.7066 -0.0977,3.5918 l 0.1993,0.625 -0.6473,-0.084 c -0.0949,-0.0102 -0.8566,-0.1289 -1.7824,-1.0625 -0.7715,1.5601 -2.2422,2.7223 -3.7727,3.4859 0.5637,-1.7859 0.636,-2.4429 0.175,-3.2066 -1.0437,0.9723 -2.3152,1.1609 -2.373,1.1648 l -0.7364,0.1067 0.2989,-0.6821 c 0.4715,-1.0925 0.0996,-1.8464 -0.3321,-2.7285 -0.3183,-0.648 -0.6765,-1.3797 -0.6765,-2.2879 8e-4,-1.1867 0.6043,-1.9465 1.1746,-2.3625 -0.4004,-0.3609 -0.6563,-0.8925 -0.6555,-1.4785 0,-0.7469 0.384,-1.3965 0.9633,-1.7222 0.1894,-0.5825 0.5965,-1.0657 1.1336,-1.3489 l 0.668,-13.4437 c -0.8164,-0.1723 -1.4266,-0.9012 -1.4258,-1.7563 0,-0.9258 0.7019,-1.6859 1.5996,-1.7801 l 0.2683,-5.3878 c 0,-0.7969 0.6477,-1.4461 1.4473,-1.4418 0.8332,0 1.4387,0.6449 1.4484,1.4257 l 0.2415,5.409 c 0.9082,0.0949 1.6082,0.8781 1.6062,1.784 0,0.8723 -0.623,1.5981 -1.448,1.7551 l 0.5984,13.4137 c 0.5644,0.2769 0.998,0.7832 1.1875,1.3945 0.582,0.3387 0.9551,1.0176 0.9551,1.7144 0,0.6555 -0.3496,1.2856 -0.8848,1.6352 m -0.2312,6.2715 c -0.2747,-1.7043 0.2332,-3.0942 0.3152,-3.3028 0.4824,-1.721 -0.8203,-2.516 -1.1074,-2.6703 l -0.041,0.0118 -1.304,-0.004 c 0.8157,1.0665 1.468,2.4614 1.468,3.7063 -0.0019,0.3801 -0.043,0.7352 -0.114,1.0812 l -0.1079,0.3629 c 0.3293,0.3852 0.6399,0.6504 0.8911,0.8149 m -3.761,1.9148 c 1.0215,-0.8254 2.2832,-2.3847 2.2871,-4.1738 0,-1.6184 -1.3847,-3.4695 -1.7168,-3.7078 -0.2683,0.3594 -0.6007,1.039 -0.6047,1.8074 -0.0027,1.332 0.6497,2.1133 0.6497,2.1133 0,0 -0.9622,-0.6199 -1.1043,-1.8543 -0.0676,-0.602 0.0632,-1.2363 0.4714,-2.0664 l -0.5839,0 c -0.1563,0.2515 -1.2852,1.6558 -0.345,3.2476 0.1575,0.2602 0.8645,1.2817 0.9524,1.4883 0.1074,0.2524 0.0976,0.4887 0.0976,0.4887 -0.1172,-0.1898 -0.3191,-0.4191 -0.3191,-0.4191 -0.2023,-0.2227 -0.8945,-0.9395 -1.1113,-1.2032 -1.3489,-1.6328 -0.0364,-3.4543 0.0261,-3.6054 l -0.5476,0 c -0.5988,0.6867 -0.8,1.3554 -0.7395,2.3625 0.1348,2.2586 2.8575,2.541 2.5879,5.5222 m -4.0469,-5.9929 c 0,0.7078 0.2879,1.2949 0.5918,1.916 0.3711,0.7554 0.7832,1.5965 0.5887,2.6551 0.3879,-0.1504 0.882,-0.4122 1.3117,-0.8411 -0.2722,-0.3289 -0.5722,-0.6504 -0.7343,-0.8484 -1.1465,-1.3621 -1.5879,-2.9813 -0.3594,-4.791 l -0.1746,0 c -0.0129,0.0012 -1.2199,0.4336 -1.2239,1.9094 m 4.9766,-29.2704 c 0,-0.3589 -0.2617,-0.6476 -0.6418,-0.6476 -0.3531,-0.0031 -0.6433,0.293 -0.6433,0.6449 l -0.2657,5.3688 0.336,0 0.1914,-5.1887 c 0,-0.3922 0.1836,-0.4711 0.1836,-0.4711 l -0.1036,5.6598 1.1836,0.0019 -0.2402,-5.368 z m 1.8496,7.1641 c 0,-0.532 -0.4414,-0.9898 -0.9844,-0.9898 L 67.8418,67.484 c -0.5469,0 -0.9922,0.443 -0.9922,0.9859 0,0.5371 0.4402,0.9891 0.9895,0.9891 l 3.0261,0.0031 c 0.5469,0 0.9883,-0.441 0.9883,-0.9832 m -4.2312,14.9383 c 0,0 0.2058,-0.0317 0.5437,-0.0551 l 0.4883,-13.0992 -0.3777,0 -0.6543,13.1543 z m 1.1375,-0.093 c 0.6164,-0.0222 1.409,-0.0168 2.2363,0.0899 L 70.4043,70.2672 68.9961,70.2629 68.7598,83.3242 Z m 2.0117,0.8828 -2.8738,-0.0027 c -0.4914,-0.0031 -0.9336,0.232 -1.2141,0.5937 l 5.2949,0.0106 c -0.2773,-0.3672 -0.7168,-0.5984 -1.207,-0.6016 m 1.3652,1.4016 -5.6113,-0.0102 c -0.5332,0 -1.0117,0.4575 -1.0156,1.1457 0,0.6614 0.4875,1.1414 1.0117,1.1414 l 5.6125,0.004 c 0.5223,0 1.0105,-0.5016 1.0125,-1.1336 0,-0.636 -0.4883,-1.1473 -1.0098,-1.1473"
       style="fill:#ffffff;fill-opacity:1;fill-rule:nonzero;stroke:none"
       id="path20" /><path
       d="m 105.092,86.0352 -4.16,-0.0032 c -0.489,0 -0.909,0.0215 -1.0289,0.5774 -0.157,0.7219 0.5269,0.8691 0.5269,0.8691 -0.06,-0.0422 -0.228,-0.3625 -0.094,-0.6941 0.121,-0.2973 0.364,-0.2563 0.775,-0.2563 l 4.651,0.0063 c 0,-0.4504 -0.67,-0.4992 -0.67,-0.4992"
       style="fill:#ffffff;fill-opacity:1;fill-rule:nonzero;stroke:none"
       id="path22" /><path
       d="m 103.969,67.9699 -2.023,0 c -0.344,0.0039 -0.655,0.068 -0.78,0.4481 -0.152,0.4558 0.355,0.564 0.355,0.564 -0.039,-0.03 -0.107,-0.1761 -0.01,-0.407 0.086,-0.2141 0.275,-0.2012 0.562,-0.2031 l 2.368,-0.011 c 0.002,-0.391 -0.472,-0.391 -0.472,-0.391"
       style="fill:#ffffff;fill-opacity:1;fill-rule:nonzero;stroke:none"
       id="path24" /><path
       d="m 106.631,88.3918 c 0.693,0.625 1.323,1.7 0.888,3.2195 l -0.02,0.0481 c -0.007,0.0136 -0.69,1.7066 -0.097,3.5918 l 0.2,0.625 -0.65,-0.084 c -0.095,-0.0102 -0.856,-0.1289 -1.782,-1.0625 -0.77,1.5601 -2.24,2.7207 -3.77,3.4859 0.561,-1.7859 0.636,-2.4429 0.174,-3.2066 -1.046,0.9723 -2.3174,1.1609 -2.3736,1.1648 l -0.7356,0.1067 0.2981,-0.6821 c 0.4715,-1.0925 0.0992,-1.8464 -0.332,-2.7285 -0.3176,-0.648 -0.6789,-1.3797 -0.6789,-2.2879 0.0019,-1.1882 0.6074,-1.9465 1.1765,-2.3625 -0.4004,-0.364 -0.657,-0.8925 -0.6551,-1.4785 0,-0.7469 0.3829,-1.3965 0.9629,-1.7222 0.1895,-0.5825 0.5996,-1.0657 1.1337,-1.3489 l 0.665,-13.4437 c -0.815,-0.1723 -1.4256,-0.9012 -1.4229,-1.7563 0,-0.9258 0.7019,-1.6859 1.5969,-1.7801 l 0.271,-5.3878 c 0,-0.7969 0.649,-1.4461 1.448,-1.4418 0.834,0 1.439,0.6449 1.448,1.4257 l 0.242,5.409 c 0.907,0.0949 1.608,0.8781 1.605,1.784 0,0.8723 -0.623,1.5981 -1.446,1.7551 l 0.596,13.4137 c 0.564,0.2769 1.001,0.7832 1.19,1.3945 0.582,0.3387 0.956,1.0176 0.956,1.7144 -0.003,0.6555 -0.352,1.2856 -0.888,1.6352 m -0.227,6.2715 c -0.279,-1.7043 0.229,-3.0942 0.311,-3.3028 0.48,-1.721 -0.819,-2.516 -1.108,-2.6703 l -0.037,0.0118 -1.305,-0.004 c 0.813,1.0665 1.465,2.4614 1.465,3.7063 -0.001,0.3801 -0.039,0.7352 -0.112,1.0812 l -0.108,0.3629 c 0.328,0.3852 0.638,0.6504 0.894,0.8149 m -3.766,1.9148 c 1.024,-0.8254 2.288,-2.3847 2.288,-4.1738 0,-1.6184 -1.381,-3.4695 -1.717,-3.7078 -0.27,0.3594 -0.602,1.039 -0.604,1.8074 -0.001,1.332 0.653,2.1133 0.653,2.1133 0,0 -0.965,-0.6199 -1.106,-1.8543 -0.068,-0.602 0.063,-1.2363 0.473,-2.0664 l -0.587,0 c -0.157,0.2515 -1.284,1.6558 -0.345,3.2476 0.158,0.2602 0.864,1.2817 0.952,1.4883 0.111,0.2524 0.098,0.4887 0.098,0.4887 -0.116,-0.1898 -0.319,-0.4191 -0.319,-0.4191 -0.202,-0.2227 -0.894,-0.9395 -1.111,-1.2032 -1.3501,-1.6328 -0.038,-3.4543 0.027,-3.6054 l -0.547,0 c -0.602,0.6867 -0.8028,1.3554 -0.74,2.3625 0.135,2.2586 2.856,2.541 2.585,5.5222 m -4.0442,-5.9929 c 0,0.7078 0.2871,1.2949 0.5917,1.916 0.3711,0.7554 0.7833,1.5965 0.586,2.6551 0.3915,-0.1504 0.8835,-0.4122 1.3105,-0.8411 -0.269,-0.3281 -0.568,-0.6504 -0.733,-0.8484 -1.1439,-1.3621 -1.5845,-2.9813 -0.3588,-4.791 l -0.1757,0 c -0.0098,0.0012 -1.22,0.4336 -1.2207,1.9094 M 103.57,61.3148 c 0,-0.3589 -0.265,-0.6476 -0.642,-0.6476 -0.353,-0.0031 -0.645,0.293 -0.645,0.6449 l -0.265,5.3688 0.336,0 0.191,-5.1887 c 0,-0.3922 0.184,-0.4711 0.184,-0.4711 l -0.102,5.6598 1.184,0.0019 -0.241,-5.368 z m 1.848,7.1641 c 0,-0.532 -0.441,-0.9898 -0.983,-0.9898 l -3.029,-0.0051 c -0.547,0 -0.99,0.443 -0.99,0.9859 0,0.5371 0.441,0.9891 0.988,0.9891 l 3.029,0.0031 c 0.544,0 0.985,-0.441 0.985,-0.9832 m -4.23,14.9383 c 0,0 0.205,-0.0317 0.544,-0.0551 l 0.487,-13.0992 -0.377,0 -0.654,13.1543 z m 1.138,-0.093 c 0.612,-0.0222 1.41,-0.0168 2.235,0.0899 l -0.59,-13.1469 -1.408,-0.0043 -0.237,13.0613 z m 2.012,0.8828 -2.877,-0.0027 c -0.491,-0.0031 -0.931,0.232 -1.211,0.5937 l 5.295,0.0106 c -0.279,-0.3672 -0.717,-0.5984 -1.207,-0.6016 m 1.364,1.4016 -5.612,-0.0102 c -0.5314,0 -1.0107,0.4575 -1.013,1.1457 0,0.6614 0.4855,1.1414 1.011,1.1414 l 5.611,0.004 c 0.522,0 1.014,-0.5016 1.016,-1.1336 0,-0.636 -0.492,-1.1473 -1.013,-1.1473"
       style="fill:#ffffff;fill-opacity:1;fill-rule:nonzero;stroke:none"
       id="path26" /><path
       d="m 91.3516,86.9961 c 0.8535,0.7187 1.9445,2.1269 1.3,4.3816 l -0.0168,0.0461 c -0.0118,0.0227 -0.9832,2.4367 -0.1407,5.0918 l 0.1961,0.6239 -0.6464,-0.0809 c -0.0543,-0.0078 -1.1747,-0.1609 -2.5047,-1.5613 -1.2813,2.6668 -4.0203,4.3203 -4.1739,4.405 l -1.0058,0.5967 0.4004,-1.1013 c 0.1601,-0.4457 0.509,-1.8079 0.1718,-2.7434 -0.0996,-0.282 -0.2168,-0.5281 -0.3437,-0.7512 -1.4316,1.4231 -3.25,1.6782 -3.3301,1.6887 l -0.7363,0.1008 0.2969,-0.6828 c 0.6855,-1.5735 0.1543,-2.659 -0.459,-3.9129 -0.4551,-0.925 -0.9246,-1.8821 -0.9219,-3.0949 0.002,-1.668 0.8867,-2.7059 1.6738,-3.2344 -0.6152,-0.4746 -1.0129,-1.218 -1.0105,-2.0496 0.0015,-1.0176 0.5926,-1.895 1.4461,-2.3188 0.1465,-0.8621 0.716,-1.5769 1.4883,-1.9258 L 83.9004,61.6039 C 82.827,61.416 82.0105,60.477 82.0105,59.3531 c 0.0032,-1.1972 0.9258,-2.1769 2.0989,-2.2801 l 0.3469,-7.589 c 0,-1.0731 0.8765,-1.943 1.948,-1.9418 1.073,0 1.9453,0.875 1.9434,1.9269 l 0.3496,7.6039 c 1.2238,0.0489 2.2031,1.0571 2.2031,2.2911 -0.0039,1.1621 -0.8711,2.114 -1.9922,2.266 l 0.8684,18.8726 c 0.8101,0.3625 1.407,1.0918 1.5347,1.936 0.8235,0.4363 1.3828,1.3008 1.3789,2.2957 0,0.9707 -0.5418,1.8176 -1.3386,2.2617 m 0.1328,8.9773 c -0.5196,-2.5027 0.2558,-4.5839 0.3652,-4.8511 0.6445,-2.2825 -0.8894,-3.4563 -1.4875,-3.8188 -0.0867,0.0117 -0.1734,0.0129 -0.2625,0.0129 l -2.032,0 c 0.8777,1.0645 2.1355,3.0215 2.1179,5.4988 -0.0039,0.6368 -0.1132,1.2422 -0.2988,1.811 0.6184,0.7222 1.1856,1.1265 1.5977,1.3472 m -5.761,0.3989 c 0.2551,0.7144 0.2129,1.5379 0.1067,2.1843 1.2793,-0.9875 3.498,-3.0847 3.5156,-5.7468 0.0234,-2.7075 -1.7371,-4.8008 -2.4062,-5.4934 l -0.1172,-0.0012 c -0.3672,0.5032 -0.8203,1.4297 -0.8203,2.4868 -0.004,1.8484 0.8984,2.9324 0.8984,2.9324 0,0 -1.334,-0.866 -1.5305,-2.5711 -0.0945,-0.8332 0.0871,-1.7063 0.6438,-2.8481 l -0.8125,0 c -0.25,0.3852 -1.7539,2.3078 -0.4668,4.4778 0.2168,0.3664 1.1914,1.78 1.3183,2.0675 0.1536,0.3536 0.1336,0.6817 0.1336,0.6817 -0.159,-0.2656 -0.4422,-0.5844 -0.4422,-0.5844 -0.2793,-0.3101 -1.2382,-1.3023 -1.5398,-1.668 -1.8305,-2.2183 -0.1203,-4.6875 0.0281,-4.9785 l -0.9062,-0.0015 c -2.5442,3.3211 0.1386,5.9453 0.2578,6.0601 l 0.0293,0.0305 c 0.1719,0.1965 0.3398,0.3769 0.5,0.55 0.6535,0.709 1.2137,1.3164 1.6101,2.4219 m -5.448,-6.3703 c -0.002,1.0195 0.407,1.8449 0.8359,2.7238 0.5606,1.1465 1.1367,2.3211 0.741,3.8594 0.6086,-0.1934 1.5032,-0.6016 2.2461,-1.3809 -0.1804,-0.227 -0.3855,-0.4484 -0.5996,-0.6816 -0.1629,-0.1797 -0.3316,-0.3594 -0.5105,-0.5625 -0.252,-0.2539 -2.9754,-3.125 -0.668,-6.6836 -0.0969,-0.0121 -0.1894,-0.0332 -0.2844,-0.0571 -0.2605,0.1075 -1.7586,0.802 -1.7605,2.7825 m 4.4219,-9.7579 0.7785,-18.6011 -0.7375,0 -0.8535,18.6082 c 0.0703,-0.0032 0.1425,-0.009 0.2136,-0.009 l 0.5989,0.0019 z m 2.8086,-30.7589 c 0.0039,-0.6051 -0.4922,-1.1043 -1.1016,-1.1043 -0.6105,0 -1.1055,0.4961 -1.1094,1.125 l -0.3476,7.5589 0.6836,0.0024 0.2863,-7.3863 c 0,-0.5457 0.2508,-0.6547 0.2508,-0.6547 l -0.1282,8.041 1.8196,0.0027 -0.3535,-7.5847 z m 2.5546,9.8789 c 0,-0.802 -0.6484,-1.4532 -1.4492,-1.4563 l -4.3086,-0.0047 c -0.8007,0 -1.4504,0.652 -1.4519,1.45 0,0.7981 0.6492,1.4489 1.4461,1.4489 l 4.3105,0.0089 c 0.7989,0 1.4512,-0.65 1.4531,-1.4468 m -1.9929,2.282 -2.1535,-0.0031 -0.2293,18.6011 2.9343,0.0039 c 0.1036,0 0.2012,0.0071 0.3067,0.0208 L 88.0676,61.6461 Z m 0.5496,19.4406 -4.5188,-0.0039 c -0.7175,0 -1.3406,0.434 -1.6082,1.059 0.0672,-0.0063 0.1336,-0.0102 0.2012,-0.0102 l 7.4172,0.0102 c 0.0848,0 0.1668,0.002 0.25,0.0098 -0.2805,-0.6145 -0.9641,-1.0625 -1.7414,-1.0649 m 1.4875,1.8918 -7.4133,-0.0066 c -0.9668,-0.0024 -1.75,0.7832 -1.7519,1.7461 -0.002,0.9644 0.7824,1.7476 1.7468,1.75 l 7.4133,0.0117 c 0.1317,0 0.259,-0.018 0.3801,-0.0434 l 0.0074,-0.0164 c 0,0 0.009,0.0047 0.0207,0.011 0.7695,-0.1868 1.3438,-0.8789 1.3457,-1.6996 0,-0.9637 -0.782,-1.7528 -1.7488,-1.7528"
       style="fill:#ffffff;fill-opacity:1;fill-rule:nonzero;stroke:none"
       id="path28" /><path
       d="m 82.2844,84.6941 c -0.216,0.5317 0.0574,1.043 0.1492,1.1164 0,0 -1.0449,-0.1828 -0.791,-1.3488 0.1933,-0.8941 0.8117,-0.9883 1.6035,-0.9844 l 6.7117,0.0082 c 0,0 0.7863,-0.0746 1.0832,0.67 l -7.5066,-0.0117 c -0.6614,-0.0012 -1.0571,0.0664 -1.25,0.5503"
       style="fill:#ffffff;fill-opacity:1;fill-rule:nonzero;stroke:none"
       id="path30" /><path
       d="m 83.9504,59.309 c -0.1672,0.4219 0.0457,0.825 0.1199,0.8808 0,0 -0.8242,-0.1398 -0.6269,-1.0617 0.1543,-0.7051 0.6425,-0.7801 1.2675,-0.7769 l 3.6602,0.0047 c 0,0 0.6172,-0.0598 0.8496,0.5242 l -4.282,-0.0051 c -0.5227,0 -0.834,0.0551 -0.9883,0.434"
       style="fill:#ffffff;fill-opacity:1;fill-rule:nonzero;stroke:none"
       id="path32" /><path
       d="m 126.603,119.449 -0.136,2.425 c -0.161,2.243 -0.43,4.596 -0.809,6.997 l -0.272,1.634 c -0.156,0.865 -0.324,1.734 -0.518,2.609 l -0.159,0.733 -0.721,-0.211 c -0.021,-0.004 -1.183,-0.337 -3.139,-0.663 l -4.745,-0.541 c -0.94,-0.059 -1.94,-0.098 -2.997,-0.101 -2.761,-0.002 -5.462,0.248 -8.068,0.719 l -1.664,0.331 c -0.028,0.007 -0.061,0.008 -0.091,0.015 -0.034,0.009 -1.369,0.293 -3.4012,0.983 l -2.2129,0.823 c -2.209,0.884 -4.8293,2.159 -7.4316,3.9 l -2.1731,1.58 c -0.405,0.323 -0.8093,0.651 -1.2058,1.002 l -0.4844,0.418 -0.4617,-0.439 c -0.0149,-0.014 -0.4055,-0.38 -1.143,-0.96 l -2.2215,-1.601 c -1.8125,-1.199 -4.334,-2.644 -7.4765,-3.916 l -2.211,-0.825 c -1.0683,-0.366 -2.1902,-0.713 -3.373,-1.013 -0.0313,-0.007 -0.0637,-0.012 -0.0918,-0.019 l -1.9199,-0.418 c -2.2598,-0.42 -4.6934,-0.638 -7.2715,-0.644 -1.2598,0 -2.4649,0.048 -3.5906,0.131 l -4.754,0.552 c -1.8792,0.3 -3.0375,0.591 -3.0617,0.597 l -0.705,0.179 -0.1575,-0.709 c -0.1511,-0.703 -0.2781,-1.399 -0.4097,-2.095 l -0.3625,-2.118 c -0.3672,-2.356 -0.627,-4.658 -0.7793,-6.857 l -0.1387,-2.442 c -0.0508,-1.19 -0.0762,-2.338 -0.082,-3.444 l 0.0175,-2.368 c 0.1329,-6.645 0.9239,-11.233 0.9883,-11.599 0.0742,-0.567 1.4793,-11.271 6.7996,-24.1792 C 58.9734,65.8 68.5422,49.2102 85.7773,38.7609 l 0.7481,-0.4519 0.7449,0.4519 c 17.2077,10.4969 26.7317,27.1102 31.7007,39.2422 5.29,12.918 6.671,23.6289 6.738,24.1909 0.064,0.369 0.834,4.901 0.963,11.483 l 0.013,2.348 c -0.004,1.105 -0.031,2.242 -0.082,3.424 m -18.538,-17.496 -0.184,0.677 c -2.472,-0.666 -4.235,-0.976 -5.552,-0.978 l -0.02,0 c -2.288,0 -5.8402,0.292 -9.8266,1.691 -1.0847,0.376 -2.3808,0.794 -3.7832,1.03 -1.4258,0.244 -2.6554,0.27 -3.9765,0.097 -1.6582,-0.213 -3.1739,-0.7 -4.4368,-1.149 -4.0015,-1.406 -7.5593,-1.704 -9.8386,-1.709 l -0.0137,0 c -1.957,0 -4.6758,0.703 -7.0781,1.393 l -0.1946,-0.678 0.1899,0.678 c -0.686,0.193 -1.3645,0.393 -2.018,0.584 l -0.7859,0.23 c -1.4231,0.413 -3.7969,0.723 -5.5332,0.723 l -0.0203,0 c -2.3547,-0.003 -4.4543,-0.518 -6.5383,-1.603 -0.0547,0.351 -0.127,0.857 -0.209,1.495 2.0605,1.125 4.3769,1.743 6.7422,1.745 l 0.0293,0 c 1.5976,0 3.8469,-0.293 5.1347,-0.668 l 2.8079,-0.817 0.1961,0.675 -0.1934,-0.675 c 2.6348,-0.751 5.3613,-1.447 7.4687,-1.447 l 0.0157,0 c 2.3867,0.006 6.1101,0.318 10.3007,1.798 1.2032,0.421 2.6387,0.88 4.1458,1.071 l 1.373,0.102 c 0.0281,0 0.0555,0 0.084,0 l 2.1238,-0.186 c 1.3027,-0.225 2.5234,-0.618 3.543,-0.972 4.1726,-1.459 7.8855,-1.77 10.2724,-1.77 l 0.036,0 c 1.442,0 3.264,0.316 5.918,1.025 1.084,0.292 2.174,0.615 3.216,0.923 l 1.151,0.339 c 1.269,0.373 3.614,0.678 5.231,0.68 l 0.016,0 c 2.371,0 4.702,-0.609 6.771,-1.738 -0.076,-0.61 -0.145,-1.092 -0.198,-1.442 -2.068,1.037 -4.226,1.544 -6.573,1.544 l -0.013,0 c -1.527,-10e-4 -4.049,-0.28 -5.626,-0.737 l -1.168,-0.344 c -1.024,-0.306 -2.1,-0.623 -3.17,-0.91 l 0.184,-0.677 z m -37.5142,4.315 0.0117,0 c 1.6699,0.002 4,0.168 6.668,0.762 1.1574,0.26 2.3691,0.59 3.6308,1.033 1.2012,0.425 2.6348,0.883 4.1465,1.075 l 1.4727,0.1 2.1062,-0.186 c 1.3254,-0.229 2.5891,-0.641 3.5442,-0.977 1.5468,-0.541 3.0293,-0.92 4.4082,-1.189 2.3379,-0.452 4.3689,-0.576 5.8759,-0.576 l 0.024,0 c 1.446,0 3.27,0.316 5.915,1.027 1.111,0.297 2.233,0.627 3.297,0.943 l 1.076,0.318 c 1.279,0.372 3.625,0.677 5.226,0.679 l 0.012,0 c 2.406,0 4.916,-0.624 6.986,-1.695 -0.049,-0.559 -0.097,-1.081 -0.149,-1.561 -2.149,1.076 -4.529,1.641 -6.944,1.641 l -0.017,0 c -1.542,-0.003 -4.066,-0.278 -5.624,-0.737 l -1.156,-0.34 c -1.028,-0.305 -2.108,-0.627 -3.182,-0.91 -1.58,-0.424 -3.865,-0.948 -5.588,-0.981 -2.279,0 -5.8222,0.295 -9.8105,1.69 -0.4969,0.175 -1.0742,0.365 -1.6953,0.545 -0.6563,0.191 -1.3633,0.367 -2.0899,0.492 -0.8066,0.136 -1.5625,0.203 -2.3203,0.203 -0.5547,-10e-4 -1.0937,-0.039 -1.6492,-0.113 l 0,0 c -0.8695,-0.109 -1.6985,-0.299 -2.4817,-0.518 -0.6972,-0.197 -1.3593,-0.413 -1.9621,-0.627 -4.0047,-1.412 -7.5613,-1.709 -9.8386,-1.713 l -0.0118,0 c -1.9414,0 -4.6679,0.704 -7.0839,1.391 l -2.8028,0.815 c -1.4199,0.412 -3.789,0.723 -5.5273,0.723 l -0.0305,0 c -2.4109,-0.006 -4.782,-0.568 -6.9195,-1.638 -0.0481,0.459 -0.0988,0.958 -0.1465,1.492 2.1121,1.116 4.698,1.759 7.1863,1.762 l 0.0137,0 c 1.6016,0 3.8574,-0.295 5.1484,-0.67 l 2.8067,-0.816 0.1933,0.674 -0.1925,-0.674 c 2.6347,-0.753 5.3644,-1.444 7.4738,-1.444 m 15.9433,4.377 -0.0058,-0.109 0,0.109 c -0.5567,-0.006 -1.1133,-0.043 -1.6543,-0.115 l 0,0 c -1.6445,-0.209 -3.166,-0.696 -4.4395,-1.144 -3.4316,-1.209 -6.5371,-1.6 -8.7968,-1.69 1.0253,7.393 7.2714,12.896 14.8234,12.905 l 0.0191,0 c 7.4543,0 13.7808,-5.576 14.8298,-12.862 -2.2446,0.094 -5.3005,0.483 -8.677,1.664 -1.009,0.354 -2.3508,0.788 -3.7817,1.036 l -0.0086,-0.051 0.0071,0.051 c -0.8098,0.134 -1.5676,0.206 -2.3157,0.206 m 21.6779,-2.629 -0.184,0.677 c -1.492,-0.4 -3.625,-0.922 -5.3,-0.97 -0.186,1.423 -0.563,2.782 -1.088,4.065 l 23.671,1.783 c -0.035,-1.632 -0.107,-3.126 -0.199,-4.462 -2.158,1.009 -4.688,1.572 -7.107,1.572 l -0.012,0 c -1.527,0 -4.048,-0.276 -5.618,-0.735 l -1.082,-0.318 c -1.054,-0.314 -2.161,-0.642 -3.263,-0.935 l 0.182,-0.677 z m 17.113,7.826 -24.066,-3.216 c -0.185,0.385 -0.383,0.763 -0.596,1.135 l 24.584,5.385 c 0.045,-1.139 0.078,-2.248 0.078,-3.304 m -0.953,12.415 c 0.357,-2.332 0.599,-4.601 0.748,-6.771 l -24.906,-6.979 c -0.4345,0.669 -0.924,1.294 -1.4474,1.889 l 25.6054,11.861 z m -6.248,2.929 c 2.611,0.266 4.573,0.675 5.561,0.915 0.095,-0.448 0.169,-0.893 0.253,-1.34 L 98.1855,116.995 c -0.2636,0.274 -0.5351,0.536 -0.8164,0.788 l 20.7149,13.403 z m -13.004,0.427 c 2.59,-0.449 5.281,-0.69 8.027,-0.686 0.333,0 0.647,0.013 0.967,0.021 L 96.7734,118.282 c -0.6972,0.57 -1.4375,1.087 -2.2214,1.536 l 10.528,11.795 z m -5.912,1.512 c 1.485,-0.511 2.648,-0.823 3.284,-0.976 l -8.8399,-11.816 c -0.45,0.223 -0.9109,0.42 -1.3836,0.602 l 6.9395,12.19 z m -9.1367,4.427 c 2.4824,-1.608 4.9414,-2.794 7.0457,-3.645 l -5.8172,-12.646 c -1.0762,0.336 -2.1907,0.572 -3.341,0.675 l 2.1125,15.616 z m -3.6309,2.667 c 0.5195,-0.433 1.0449,-0.847 1.5723,-1.242 l -0.9414,-17 c -0.1973,0.009 -0.3926,0.03 -0.5911,0.03 l -0.0203,0 c -0.209,0 -0.4101,-0.021 -0.6125,-0.03 l -0.9441,17.026 c 0.6805,0.502 1.2031,0.927 1.5371,1.216 m -3.6426,-2.667 2.1133,-15.618 c -1.1719,-0.11 -2.2988,-0.355 -3.3848,-0.696 l -5.8242,12.665 c 2.9094,1.178 5.2899,2.491 7.0957,3.649 m -9.1875,-4.434 6.9442,-12.204 c -0.4696,-0.178 -0.9305,-0.383 -1.3797,-0.604 l -8.8321,11.806 c 1.1453,0.306 2.2344,0.643 3.2676,1.002 m -13.3652,-2.252 c 2.6679,0 5.1816,0.225 7.5262,0.664 l 10.4718,-11.731 c -0.7922,-0.459 -1.541,-0.984 -2.2422,-1.567 l -17.291,12.654 c 0.5059,-0.011 1.0117,-0.023 1.5352,-0.02 m -11.0449,1.153 c 0.989,-0.213 2.9394,-0.594 5.4628,-0.858 l 20.7571,-13.427 c -0.2785,-0.254 -0.552,-0.508 -0.8117,-0.783 l -25.6543,13.733 c 0.082,0.445 0.1535,0.887 0.2461,1.335 m -0.6731,-3.83 25.5539,-11.837 c -0.4824,-0.566 -0.9414,-1.152 -1.3496,-1.778 l -24.9258,6.986 c 0.1426,2.128 0.3789,4.349 0.7215,6.629 m -0.8484,-8.99 24.6054,-5.385 c -0.2187,-0.375 -0.4179,-0.762 -0.6054,-1.159 l -24.0782,3.219 c 0.004,1.065 0.0333,2.183 0.0782,3.325 m 23.6218,-7.395 c -0.5234,-1.293 -0.8972,-2.671 -1.0808,-4.118 -1.9094,0.078 -4.4473,0.731 -6.7168,1.378 l -2.8035,0.815 c -1.4199,0.411 -3.7973,0.723 -5.5364,0.723 l -0.0214,0 c -2.4981,-0.001 -5.0996,-0.599 -7.3028,-1.648 -0.0996,1.379 -0.1816,2.938 -0.2168,4.636 l 23.6785,-1.786 z M 117.656,78.4961 C 112.766,66.568 103.404,50.243 86.5242,39.9512 69.6152,50.1941 60.2051,66.5012 55.2871,78.4191 50.7566,89.3895 49.1016,98.7117 48.6836,101.45 c 2.0195,1.135 4.0332,1.685 6.3113,1.687 l 0.0168,0 c 1.5977,0 3.8516,-0.293 5.1426,-0.668 l 0.7832,-0.23 c 0.6582,-0.189 1.3379,-0.389 2.0293,-0.585 l 0,-0.002 c 2.4973,-0.714 5.3359,-1.444 7.4668,-1.444 l 0.0137,0 c 2.3894,0.006 6.1172,0.319 10.3047,1.792 1.1914,0.421 2.6132,0.878 4.1375,1.075 l 1.3808,0.102 c 0.0266,0 0.0539,0 0.0805,0 l 2.1305,-0.189 c 1.2953,-0.222 2.5148,-0.616 3.539,-0.972 4.1699,-1.461 7.893,-1.769 10.2887,-1.769 l 0.022,0 c 1.444,0.004 3.321,0.33 5.914,1.026 l 0,0 c 1.081,0.291 2.168,0.615 3.204,0.921 l 1.162,0.338 c 1.285,0.376 3.633,0.684 5.235,0.686 l 0.012,0 c 2.275,0 4.355,-0.553 6.349,-1.631 -0.4,-2.6878 -2.024,-12.0526 -6.551,-23.0909"
       style="fill:#ffffff;fill-opacity:1;fill-rule:nonzero;stroke:none"
       id="path34" /><path
       d="m 141.549,129.05 c 0,1.785 -0.422,2.627 -1.787,2.627 l -2.42,0 c -0.317,0 -0.424,0.106 -0.424,0.476 l 0,1.211 c 0,0.314 0.107,0.419 0.526,0.419 0.529,0 3.051,-0.156 8.105,-0.156 4.418,0 6.942,0.156 7.573,0.156 0.316,0 0.42,-0.105 0.42,-0.37 l 0,-1.315 c 0,-0.315 -0.104,-0.421 -0.42,-0.421 l -2.21,0 c -1.579,0 -2.523,-0.943 -2.578,-2.049 -0.053,-0.634 -0.156,-3.789 -0.156,-6.838 l 0,-6.526 c 0,-2.628 0.051,-6.365 0.156,-8.049 0.158,-2.42 0.579,-4.84 1.842,-6.525 1.791,-2.4146 4.633,-3.2584 7.154,-3.2584 2.419,0 5.367,0.9524 7.048,2.5234 2.003,1.999 3.054,5.052 3.054,8.893 l 0,9.467 c 0,4.212 -0.423,8.843 -0.58,10.049 -0.159,1.37 -0.998,2.313 -2.157,2.313 l -1.895,0 c -0.314,0 -0.419,0.16 -0.419,0.372 l 0,1.315 c 0,0.314 0.105,0.419 0.419,0.419 0.528,0 2.946,-0.156 6.421,-0.156 3.261,0 4.943,0.156 5.363,0.156 0.475,0 0.527,-0.156 0.527,-0.419 l 0,-1.211 c 0,-0.316 -0.052,-0.476 -0.316,-0.476 l -1.892,0 c -1.897,0 -2.106,-1.469 -2.213,-2.049 -0.102,-0.634 -0.102,-7.995 -0.102,-8.684 0,-0.731 -0.106,-9.889 -0.315,-11.992 -0.318,-4.309 -1.582,-7.573 -4.419,-10.0985 -2.21,-2 -5.579,-3.2605 -9.577,-3.2605 -2.524,0 -5.575,0.4175 -7.574,1.2605 -3.053,1.2625 -5.156,3.6835 -6.209,7.0465 -0.736,2.319 -0.945,5.793 -0.945,12.687 l 0,12.463"
       style="fill:#ffcc00;fill-opacity:1;fill-rule:nonzero;stroke:none"
       id="path36" /><path
       d="m 176.588,108.113 c 0.208,0 0.314,-0.108 0.314,-0.422 0.107,-1.682 0.528,-3.682 2,-6.001 1.578,-2.5181 4.315,-3.783 6.946,-3.783 2.838,0 6.836,1.7895 6.836,6.154 0,4.837 -2.207,6.42 -7.785,8.521 -1.682,0.631 -5.155,2.107 -7.68,4.419 -1.789,1.688 -2.631,4.313 -2.631,7.523 0,2.948 1.158,5.365 3.683,7.368 2.105,1.783 4.42,2.522 7.47,2.522 3.472,0 5.577,-0.839 6.628,-1.262 0.526,-0.211 0.842,-0.103 1.106,0.158 l 0.681,0.683 c 0.212,0.211 0.422,0.314 0.739,0.314 0.316,0 0.419,-0.314 0.419,-0.838 0,-0.843 0.843,-8.206 0.843,-8.737 0,-0.208 -0.105,-0.311 -0.315,-0.368 l -0.841,-0.263 c -0.213,-0.049 -0.423,0 -0.527,0.32 -0.527,1.47 -1.369,3.576 -3.263,5.574 -1.366,1.473 -3.049,2.21 -5.47,2.21 -4.21,0 -5.893,-3.366 -5.893,-5.311 0,-1.792 0.211,-3.367 1.472,-4.735 1.371,-1.37 4.316,-2.632 6.421,-3.265 3.048,-0.946 5.574,-1.999 7.573,-4.1 1.682,-1.792 2.63,-4 2.63,-7.528 0,-6.415 -4.208,-11.673 -11.151,-11.673 -4.314,0 -6.84,0.9441 -8.943,2.523 -0.631,0.4211 -0.948,0.6328 -1.262,0.6328 -0.317,0 -0.526,-0.4218 -0.842,-0.948 -0.316,-0.5266 -0.523,-0.6348 -0.947,-0.6348 -0.418,0 -0.631,0.3184 -0.631,0.8457 0.105,0.6336 0.842,9.1553 0.945,9.7833 0.055,0.318 0.11,0.42 0.317,0.42 l 1.158,-0.102"
       style="fill:#ffcc00;fill-opacity:1;fill-rule:nonzero;stroke:none"
       id="path38" /><path
       d="m 234.982,104.956 c 0.159,-0.158 0.207,-0.313 0.105,-0.524 -3.157,-4.5277 -8.208,-8.839 -15.677,-8.839 -6.733,0 -10.52,2.0008 -13.782,4.946 -3.894,3.468 -5.679,9.574 -5.679,14.199 0,5.157 1.68,10.104 5.364,14.101 2.839,3.05 7.364,5.575 13.677,5.575 4.841,0 8.733,-1.473 10.627,-2.525 0.734,-0.421 0.947,-0.421 1.053,0 l 0.418,1.37 c 0.106,0.311 0.211,0.311 0.842,0.311 0.632,0 0.738,-0.101 0.738,-0.84 0,-0.949 1.051,-9.362 1.262,-10.938 0.052,-0.319 0,-0.478 -0.211,-0.531 l -1,-0.317 c -0.262,-0.101 -0.42,0.109 -0.576,0.529 -0.635,1.895 -1.895,4.523 -4.104,6.84 -2.316,2.21 -5.051,3.892 -9.156,3.892 -8.414,0 -11.887,-7.575 -11.887,-15.15 0,-3.259 0.947,-9.468 4.84,-13.677 3.473,-3.6815 6.522,-4.1026 9.049,-4.1026 5.785,0 10.36,2.8916 12.572,6.1016 0.262,0.37 0.473,0.525 0.632,0.37 l 0.893,-0.791"
       style="fill:#ffcc00;fill-opacity:1;fill-rule:nonzero;stroke:none"
       id="path40" /><path
       d="m 251.397,96.6965 c -3.576,1.4195 -5.418,3.7345 -6.258,7.0505 -0.633,2.364 -0.843,5.89 -0.843,12.782 l 0,12.521 c 0,1.839 -0.368,2.681 -1.999,2.681 l -2.473,0 c -0.313,0 -0.369,0.106 -0.369,0.472 l 0,1.161 c 0,0.314 0.056,0.419 0.475,0.419 0.527,0 3.104,-0.156 7.209,-0.156 4.101,0 6.627,0.156 7.206,0.156 0.421,0 0.471,-0.105 0.471,-0.314 l 0,-1.371 c 0,-0.261 -0.05,-0.367 -0.42,-0.367 l -2.628,0 c -1.529,0 -2.422,-0.997 -2.528,-2.155 -0.052,-0.474 -0.103,-4.155 -0.103,-6.842 l 0,-3.471 c 0,-2.784 0.209,-9.466 0.262,-11.15 0.052,-2.42 0.472,-4.894 1.683,-6.681 1.945,-2.8422 5.314,-3.7882 8.363,-3.7882 3.001,0 6.05,1.0015 7.891,2.8932 2.053,2.21 2.736,5.365 2.736,9.26 l 0,11.253 c 0,4.001 -0.105,7.054 -0.262,8.365 -0.157,1.37 -0.998,2.316 -2.369,2.316 l -2.312,0 c -0.316,0 -0.37,0.158 -0.37,0.422 l 0,1.26 c 0,0.265 0.054,0.37 0.37,0.37 0.526,0 2.945,-0.156 6.47,-0.156 3.629,0 5.311,0.156 5.787,0.156 0.473,0 0.525,-0.213 0.525,-0.37 l 0,-1.156 c 0,-0.317 -0.052,-0.526 -0.317,-0.526 l -2.156,0 c -1.946,0 -2.104,-1.475 -2.26,-2.103 -0.109,-0.526 -0.109,-7.995 -0.109,-8.732 0,-0.738 -0.103,-9.946 -0.262,-11.997 -0.315,-4.309 -1.471,-7.626 -4.416,-10.1502 -2.106,-1.9492 -5.314,-3.1558 -9.894,-3.1558 -2.731,0 -5.363,0.364 -7.1,1.1035"
       style="fill:#ffffff;fill-opacity:1;fill-rule:nonzero;stroke:none"
       id="path42" /><path
       d="m 296.59,99.2207 c 0,-0.8398 0.472,-1.1047 1.155,-1.1047 l 1.683,0 c 0.476,0 0.58,-0.1582 0.58,-0.4722 l 0,-0.8442 c 0,-0.3648 -0.104,-0.5789 -0.422,-0.5789 -0.368,0 -1.995,0.1594 -4.993,0.1594 -2.685,0 -4.368,-0.1594 -4.737,-0.1594 -0.318,0 -0.422,0.1594 -0.422,0.5789 l 0,0.8442 c 0,0.3699 0.161,0.4722 0.685,0.4722 l 1.526,0 c 0.58,0 0.998,0.2649 1.054,1.2102 0.051,1.3678 0.104,3.0518 0.104,4.4188 l 0,6.944 c 0,2.107 0,3.629 -1.526,4.734 -1.265,0.945 -2.526,0.945 -3.841,0.945 -0.842,0 -2.683,-0.367 -4.262,-2.05 -1.049,-1.159 -1.208,-2.576 -1.208,-3.575 l 0,-10.8907 c 0,-1.4207 0.159,-1.7363 1.261,-1.7363 l 1.314,0 c 0.422,0 0.527,-0.1582 0.527,-0.5222 l 0,-0.8973 c 0,-0.3164 -0.105,-0.4758 -0.369,-0.4758 -0.367,0 -1.787,0.1594 -4.576,0.1594 -2.681,0 -4.366,-0.1594 -4.68,-0.1594 -0.265,0 -0.371,0.1594 -0.371,0.4758 l 0,0.9473 c 0,0.314 0.106,0.4722 0.526,0.4722 l 1.527,0 c 0.684,0 1.052,0.1606 1.052,1.0559 l 0,12.3081 c 0,1.577 -0.841,2.471 -2.156,3.105 l -0.423,0.209 c -0.368,0.155 -0.42,0.311 -0.42,0.473 l 0,0.264 c 0,0.261 0.211,0.418 0.475,0.526 l 4.525,2.523 c 0.42,0.209 0.735,0.369 0.947,0.369 0.261,0 0.365,-0.21 0.419,-0.633 l 0.368,-3.211 0.105,0 c 1.528,1.896 4.577,3.844 7.209,3.844 1.575,0 3.206,-0.314 4.47,-1.156 1.577,-1.055 2.894,-3.686 2.894,-4.997 l 0,-13.5753"
       style="fill:#ffffff;fill-opacity:1;fill-rule:nonzero;stroke:none"
       id="path44" /><path
       d="m 302.957,127.734 c 0,1.316 1.107,2.735 3.209,2.735 1.844,0 2.736,-1.419 2.736,-2.577 0,-1.365 -0.947,-2.896 -3.052,-2.896 -1.159,0 -2.893,1.052 -2.893,2.738 m 2.369,-16.041 c 0,1.783 -0.317,2.731 -2.947,3.15 -0.367,0.053 -0.475,0.159 -0.475,0.37 l 0,0.475 c 0,0.16 0.108,0.261 0.368,0.367 1.684,0.631 3.683,1.473 5.683,2.577 0.422,0.21 0.682,0.317 1,0.317 0.263,0 0.314,-0.261 0.263,-0.633 -0.105,-0.894 -0.105,-4.209 -0.105,-8.573 l 0,-5.736 c 0,-2.051 0,-3.944 0.051,-4.5187 0.105,-1.0039 0.262,-1.3723 0.842,-1.3723 l 2.421,0 c 0.422,0 0.522,-0.1582 0.522,-0.4722 l 0,-0.8958 c 0,-0.3703 -0.1,-0.5273 -0.47,-0.5273 -0.422,0 -2.841,0.157 -5.051,0.157 -3.051,0 -5.103,-0.157 -5.679,-0.157 -0.264,0 -0.422,0.1074 -0.422,0.4231 l 0,1.0515 c 0,0.3164 0.158,0.4207 0.526,0.4207 l 2.576,0 c 0.58,0 0.788,0.211 0.844,1.0559 0.053,1.5791 0.053,3.2061 0.053,4.7831 l 0,7.738"
       style="fill:#ffffff;fill-opacity:1;fill-rule:nonzero;stroke:none"
       id="path46" /><path
       d="m 324.053,101.219 0.156,0 c 0.844,2.052 4.524,11.048 5.053,13.101 0.365,1.419 0,2.261 -0.946,2.261 l -1.054,0 c -0.158,0 -0.211,0.265 -0.211,0.525 l 0,0.947 c 0,0.317 0.105,0.422 0.314,0.422 0.737,0 1.897,-0.157 4.211,-0.157 2.053,0 3.315,0.157 3.785,0.157 0.422,0 0.474,-0.053 0.474,-0.47 l 0,-0.899 c 0,-0.366 0,-0.525 -0.263,-0.525 l -0.998,0 c -0.63,0 -1.157,-0.102 -1.632,-0.583 -0.788,-0.731 -3.419,-6.469 -4.209,-8.415 -0.631,-1.574 -4.524,-10.415 -4.733,-10.7834 -0.421,-0.7332 -0.684,-1.2066 -1.262,-1.2066 -0.523,0 -0.841,0.4734 -1.105,1.1035 -0.106,0.2637 -3.945,10.2585 -4.105,10.6805 -0.155,0.418 -2.313,6.419 -2.68,7.26 -0.684,1.524 -1.211,1.944 -2.159,1.944 l -1.05,0 c -0.264,0 -0.318,0.212 -0.318,0.525 l 0,0.947 c 0,0.369 0.108,0.422 0.581,0.422 0.578,0 1.471,-0.157 4.417,-0.157 2.79,0 4.158,0.157 4.736,0.157 0.42,0 0.526,-0.105 0.526,-0.422 l 0,-0.947 c 0,-0.313 -0.054,-0.525 -0.366,-0.525 l -1.055,0 c -0.527,0 -0.947,-0.317 -0.947,-0.998 0,-0.946 1.369,-5.314 1.683,-6.209 0.319,-0.999 2.578,-7.049 3.157,-8.155"
       style="fill:#ffffff;fill-opacity:1;fill-rule:nonzero;stroke:none"
       id="path48" /><path
       d="m 346.675,111.95 c 0.998,0 1.422,0.262 1.422,0.74 0,1.208 -0.634,4.679 -4.05,4.679 -2.319,0 -4.524,-1.521 -5.526,-5.419 l 8.154,0 z m -8.362,-1.576 c -0.106,-0.475 -0.162,-1.317 -0.162,-2.523 0,-5.158 3.265,-9.0502 7.472,-9.0502 3.211,0 5.471,1.8412 6.367,3.5762 0.104,0.211 0.315,0.316 0.472,0.262 l 0.684,-0.369 c 0.159,-0.051 0.262,-0.206 0,-0.786 -0.947,-2.1031 -3.687,-5.732 -8.366,-5.732 -2.997,0 -6.311,0.8918 -8.257,3.7363 -1.839,2.6797 -2.314,4.6247 -2.314,8.3067 0,2.053 0.525,5.577 3.311,8.364 2.264,2.318 4.894,2.79 7.525,2.79 6.049,0 7.733,-5.685 7.733,-7.735 0,-0.733 -0.634,-0.84 -1.473,-0.84 l -12.992,0"
       style="fill:#ffffff;fill-opacity:1;fill-rule:nonzero;stroke:none"
       id="path50" /><path
       d="m 357.7,110.374 c 0,2.683 -0.419,3.209 -1.895,3.998 l -1.002,0.526 c -0.313,0.104 -0.417,0.158 -0.417,0.368 l 0,0.319 c 0,0.207 0.104,0.311 0.417,0.47 l 5.21,2.684 c 0.315,0.157 0.526,0.21 0.735,0.21 0.316,0 0.37,-0.317 0.37,-0.633 l 0.264,-3.627 0.21,0 c 1.578,2.417 4.049,4.574 6.312,4.574 1.791,0 2.682,-1.103 2.682,-2.316 0,-1.524 -1.262,-2.575 -2.209,-2.575 -0.578,0 -1.106,0.209 -1.523,0.422 -0.423,0.262 -1.054,0.419 -1.739,0.419 -0.842,0 -2.209,-0.524 -3.101,-2.208 -0.319,-0.579 -0.53,-1.525 -0.53,-1.687 l 0,-11.045 c 0,-1.6277 0.373,-2.157 1.476,-2.157 l 2.47,0 c 0.318,0 0.37,-0.1582 0.37,-0.4722 l 0,-0.9473 c 0,-0.3188 -0.052,-0.4758 -0.263,-0.4758 -0.314,0 -2.737,0.157 -5.577,0.157 -3.262,0 -5.47,-0.157 -5.785,-0.157 -0.21,0 -0.316,0.1074 -0.316,0.5273 l 0,0.8958 c 0,0.3699 0.106,0.4722 0.577,0.4722 l 2.053,0 c 0.792,0 1.157,0.3156 1.157,1 0.054,1.735 0.054,3.577 0.054,6.312 l 0,4.946"
       style="fill:#ffffff;fill-opacity:1;fill-rule:nonzero;stroke:none"
       id="path52" /><path
       d="m 371.875,97.2742 c -0.262,0.1567 -0.262,0.4746 -0.314,0.7375 l -0.893,4.9983 c -0.051,0.261 0.106,0.368 0.314,0.422 l 0.684,0.154 c 0.209,0.053 0.367,-0.052 0.472,-0.315 l 1.318,-2.577 c 1.052,-1.9452 1.786,-3.2631 4.573,-3.2631 1.844,0 4.159,1.1062 4.159,3.5801 0,2.367 -1.16,3.735 -5.103,4.837 -3.104,0.894 -6.208,2.524 -6.208,6.685 0,3.628 3.42,6.416 7.368,6.416 2.523,0 3.889,-0.633 4.838,-1.105 0.79,-0.368 0.89,-0.632 0.944,-0.946 l 0.791,-3.682 c 0,-0.211 -0.106,-0.371 -0.367,-0.477 l -0.636,-0.206 c -0.208,-0.056 -0.313,0 -0.469,0.263 l -1.791,2.417 c -0.629,1.002 -1.629,2.051 -3.682,2.051 -1.997,0 -4.049,-1.209 -4.049,-3.471 0,-3.05 2.471,-3.631 5.049,-4.365 3.842,-1.106 6.262,-2.686 6.315,-6.735 -0.053,-4.2614 -3.526,-6.941 -7.997,-6.941 -2.578,0 -4.681,1.0476 -5.316,1.5222"
       style="fill:#ffffff;fill-opacity:1;fill-rule:nonzero;stroke:none"
       id="path54" /><path
       d="m 388.08,127.734 c 0,1.316 1.107,2.735 3.211,2.735 1.838,0 2.732,-1.419 2.732,-2.577 0,-1.365 -0.943,-2.896 -3.051,-2.896 -1.158,0 -2.892,1.052 -2.892,2.738 m 2.366,-16.043 c 0,1.785 -0.315,2.733 -2.946,3.152 -0.367,0.053 -0.473,0.159 -0.473,0.37 l 0,0.475 c 0,0.16 0.106,0.261 0.369,0.367 1.686,0.631 3.682,1.473 5.684,2.577 0.42,0.21 0.68,0.317 0.996,0.317 0.264,0 0.317,-0.261 0.264,-0.633 -0.104,-0.894 -0.104,-4.209 -0.104,-8.573 l 0,-5.736 c 0,-2.051 0,-3.944 0.052,-4.5187 0.105,-1.0039 0.263,-1.3723 0.841,-1.3723 l 2.422,0 c 0.419,0 0.521,-0.1582 0.521,-0.4722 l 0,-0.8958 c 0,-0.3703 -0.102,-0.5273 -0.468,-0.5273 -0.422,0 -2.845,0.157 -5.051,0.157 -3.052,0 -5.104,-0.157 -5.682,-0.157 -0.264,0 -0.422,0.1074 -0.422,0.4231 l 0,1.0515 c 0,0.3164 0.158,0.4207 0.526,0.4207 l 2.577,0 c 0.579,0 0.79,0.211 0.842,1.0559 0.052,1.5791 0.052,3.2051 0.052,4.7831 l 0,7.736"
       style="fill:#ffffff;fill-opacity:1;fill-rule:nonzero;stroke:none"
       id="path56" /><path
       d="m 404.862,102.954 c 0,-3.9435 1.788,-4.627 2.736,-4.627 1.211,0 2.732,0.2101 3.472,0.6835 0.263,0.1594 0.473,0.1055 0.63,-0.1003 l 0.264,-0.4786 c 0.156,-0.2097 0.054,-0.4199 -0.105,-0.5753 -0.526,-0.5301 -2.681,-2.1043 -5.841,-2.1043 -2.573,0 -5.101,2.4699 -5.101,4.468 0,2.157 0.157,6.786 0.157,7.524 l 0,1.155 c 0,0.949 0.052,4.473 0.106,6.684 l -3.209,0 c -0.473,0 -0.789,0.209 -0.789,0.632 0,0.419 0.316,0.578 0.945,0.944 1.264,0.737 5.318,4.84 6,6.629 0.155,0.419 0.419,0.523 0.735,0.523 0.423,0 0.527,-0.368 0.527,-0.784 l -0.266,-5.211 7.315,0 c 0.316,0 0.473,-0.263 0.368,-0.472 l -0.528,-1.843 c -0.053,-0.262 -0.158,-0.418 -0.472,-0.418 l -6.787,0 c -0.103,-2.424 -0.157,-4.944 -0.157,-7.368 l 0,-5.261"
       style="fill:#ffffff;fill-opacity:1;fill-rule:nonzero;stroke:none"
       id="path58" /><path
       d="m 413.807,84.7527 c 0,1.1067 1.16,2.0539 2.421,2.0539 1.001,0 1.946,-0.4738 2.423,-0.5769 0.366,-0.0578 0.786,0 1.103,0.3101 0.786,0.9497 3.473,6.9473 4.207,8.9985 -0.26,1.3152 -5.84,17.7257 -6.26,18.8337 -0.629,1.316 -1.104,2.215 -2.471,2.215 l -1.371,0 c -0.367,0 -0.42,0.151 -0.42,0.468 l 0,1.054 c 0,0.207 0.053,0.366 0.42,0.366 0.476,0 1.737,-0.159 4.844,-0.159 2.681,0 4.312,0.159 4.891,0.159 0.418,0 0.471,-0.159 0.471,-0.366 l 0,-1.108 c 0,-0.263 -0.053,-0.414 -0.315,-0.414 l -1,0 c -0.576,0 -0.79,-0.372 -0.685,-1.164 0.162,-1.159 3.738,-12.73 4.318,-13.887 l 0.209,0 c 0.527,0.841 5.102,11.728 5.417,13.045 0.318,1.318 -0.104,2.006 -0.894,2.006 l -0.84,0 c -0.319,0 -0.369,0.151 -0.369,0.414 l 0,1.052 c 0,0.263 0.05,0.422 0.314,0.422 0.684,0 1.789,-0.159 4.317,-0.159 1.419,0 2.627,0.159 3.205,0.159 0.317,0 0.317,-0.212 0.317,-0.422 l 0,-0.998 c 0,-0.317 0,-0.468 -0.262,-0.468 l -0.842,0 c -0.576,0 -1.314,-0.266 -1.842,-0.955 -1.156,-1.42 -4.63,-9.413 -8.261,-17.6742 -2.576,-5.8394 -4.625,-10.7312 -5.571,-12.4656 -0.741,-1.3692 -1.685,-3.4207 -4.474,-3.4207 -1.999,0 -3,1.1023 -3,2.6812"
       style="fill:#ffffff;fill-opacity:1;fill-rule:nonzero;stroke:none"
       id="path60" /><path
       d="m 463.975,107.848 c 0,5.841 -4.262,9.521 -6.944,9.521 -1.422,0 -2.788,-0.314 -4.051,-1.681 -2.052,-2.105 -2.789,-4.26 -2.789,-8.26 0,-2.948 0.32,-4.944 2.001,-7.365 1.209,-1.736 2.736,-2.7368 5.207,-2.7368 3.999,0 6.576,4.8928 6.576,10.5218 m -15.201,-8.4671 c -2.42,2.8891 -2.895,4.8401 -2.895,8.5721 0,2.686 1.42,6.052 4.523,8.471 2.737,2.105 5.315,2.525 7.05,2.525 2.892,0 5.786,-1.469 7.366,-3.05 2.366,-2.423 3.575,-5.156 3.575,-8.577 0,-5.733 -5.155,-11.57 -11.626,-11.57 -2.524,0 -5.785,0.996 -7.993,3.6289"
       style="fill:#ffffff;fill-opacity:1;fill-rule:nonzero;stroke:none"
       id="path62" /><path
       d="m 473.762,115.792 -3.633,0 c -0.262,0 -0.363,0.107 -0.262,0.579 l 0.211,1.58 c 0.051,0.312 0.213,0.367 0.632,0.367 l 3.052,0 0,0.997 c 0,5.209 1.469,8.626 3.526,10.939 2.788,3.051 5.681,4.16 8.624,4.16 2.477,0 4.789,-0.945 4.789,-2.943 0,-1.263 -1.369,-2.265 -2.212,-2.265 -0.524,0 -1.051,0.108 -1.472,0.317 -0.472,0.262 -1.051,0.946 -1.263,1.211 -0.683,0.84 -1.418,1.206 -2.418,1.206 -1.367,0 -2.785,-0.366 -3.946,-1.839 -1.945,-2.469 -1.842,-7.05 -1.842,-10.732 l 0,-1.051 6.368,0 c 0.367,0 0.42,-0.313 0.367,-0.525 l -0.263,-1.738 c -0.053,-0.207 -0.26,-0.263 -0.684,-0.263 l -5.788,0 0,-4.683 c 0,-6.206 0,-11.046 0.055,-11.6207 0.103,-0.8985 0.26,-1.3723 1.369,-1.3723 l 2.997,0 c 0.472,0 0.578,-0.1023 0.578,-0.4207 l 0,-0.8418 c 0,-0.4211 -0.106,-0.6328 -0.367,-0.6328 -0.317,0 -2.263,0.157 -6.313,0.157 -2.893,0 -5.576,-0.157 -6,-0.157 -0.314,0 -0.419,0.1074 -0.419,0.3672 l 0,1.1594 c 0,0.2664 0.105,0.3687 0.526,0.3687 l 2.524,0 c 1.002,0 1.212,0.6328 1.264,1.841 l 0,15.835"
       style="fill:#ffffff;fill-opacity:1;fill-rule:nonzero;stroke:none"
       id="path64" /><path
       d="m 144.559,48.9602 c -0.63,0.4707 -0.948,0.6308 -1.209,0.6308 -0.317,0 -0.527,-0.366 -0.842,-0.8898 -0.317,-0.5852 -0.578,-0.6364 -0.947,-0.6364 -0.315,0 -0.581,0.2661 -0.475,0.8422 0.211,1.316 0.737,7.9969 0.894,9.5192 0.053,0.3148 0.159,0.3148 0.37,0.3148 l 0.789,-0.0512 c 0.211,0 0.314,-0.1046 0.314,-0.4218 0.053,-1.684 0.158,-3.42 1.894,-6.0989 1.579,-2.4691 4.473,-3.8961 7.364,-3.8961 3.158,0 7.155,1.95 7.155,6.679 0,5.421 -3.891,7.4218 -8.1,8.8921 -1.63,0.5809 -5.419,1.8957 -7.679,4.2618 -1.737,1.7382 -2.63,4.2082 -2.63,7.6812 0,2.632 1.629,5.2063 3.259,6.7332 1.893,1.7902 4.525,2.5235 7.367,2.5235 2.997,0 5.312,-0.8907 6.206,-1.3114 0.474,-0.2644 0.736,-0.2129 1,0.052 l 0.684,0.6297 c 0.263,0.2136 0.418,0.3132 0.683,0.3132 0.262,0 0.418,-0.4168 0.418,-0.8882 0,-1.8418 0.686,-7.209 0.741,-8.37 0,-0.2613 -0.055,-0.3652 -0.264,-0.4171 l -0.633,-0.1579 c -0.156,-0.0519 -0.262,0 -0.314,0.1579 -0.423,1.5261 -1.106,3.5742 -3.262,5.8375 -1.419,1.5285 -3.262,2.2621 -5.735,2.2621 -4.681,0 -6.363,-3.4746 -6.363,-6.1528 0,-1.4738 0.315,-3.209 1.629,-4.5758 1.526,-1.5269 4.471,-2.6878 5.997,-3.1582 3.63,-1.1589 6.575,-2.0488 8.469,-4.3648 1.368,-1.6301 2.315,-3.684 2.315,-7.1551 0,-6.209 -3.788,-11.523 -10.732,-11.523 -3.681,0 -6.259,1.1051 -8.363,2.7383"
       style="fill:#ffffff;fill-opacity:1;fill-rule:nonzero;stroke:none"
       id="path66" /><path
       d="m 183.994,58.4801 c 0,5.841 -4.261,9.5219 -6.943,9.5219 -1.42,0 -2.787,-0.318 -4.051,-1.684 -2.051,-2.1032 -2.787,-4.259 -2.787,-8.2578 0,-2.9473 0.314,-4.9473 1.998,-7.3641 1.21,-1.7359 2.736,-2.7352 5.209,-2.7352 3.997,0 6.574,4.8922 6.574,10.5192 m -15.201,-8.468 c -2.421,2.8899 -2.896,4.8359 -2.896,8.5731 0,2.6839 1.421,6.05 4.525,8.4679 2.736,2.1078 5.313,2.525 7.049,2.525 2.894,0 5.789,-1.4722 7.367,-3.0519 2.367,-2.4172 3.575,-5.1543 3.575,-8.5742 0,-5.734 -5.153,-11.5711 -11.628,-11.5711 -2.521,0 -5.783,1.0019 -7.992,3.6312"
       style="fill:#ffffff;fill-opacity:1;fill-rule:nonzero;stroke:none"
       id="path68" /><path
       d="m 210.158,57.693 c 0,-2.527 0,-5.102 0.108,-6.2098 0.155,-1.6293 0.736,-1.8391 1.367,-1.8391 0.314,0 1.103,0 1.734,0.1571 0.424,0.1039 0.582,0 0.633,-0.2102 l 0.158,-0.6859 c 0.053,-0.3153 -0.051,-0.4242 -0.262,-0.4742 l -5.525,-1.8379 c -0.316,-0.1071 -0.631,-0.2141 -1.051,-0.2141 -0.213,0 -0.42,0.107 -0.474,0.6352 l -0.422,3.0519 -0.104,0 c -1.472,-2.0519 -4.525,-3.6871 -7.156,-3.6871 -1.471,0 -3.208,0.159 -4.943,2.4242 -2.158,2.7848 -2.051,4.5207 -2.051,10.3078 l 0,6.1032 c -0.055,1.4699 -0.789,1.839 -2,1.9988 -0.897,0.05 -1.158,0.1062 -1.158,0.3699 l 0,0.9453 c 0,0.3141 0.105,0.4219 0.578,0.4219 l 4.683,0 c 0.315,0 0.527,0.052 0.739,0.1059 0.209,0 0.418,0.05 0.576,0.05 0.368,0 0.632,-0.2637 0.578,-0.6297 -0.051,-0.4742 -0.21,-2.9422 -0.21,-6.0492 l 0,-3.7372 c 0,-2.1058 -0.526,-5.4699 1.157,-7.891 1.316,-1.8937 2.789,-1.9957 4.209,-1.9957 1.42,0 3.526,1.3668 4.524,2.6278 0.214,0.266 0.527,0.948 0.527,1.4222 l 0,12.5168 c -0.105,1.477 -0.947,1.7371 -2.264,1.843 -0.893,0 -1.156,0.1062 -1.156,0.3699 l 0,0.8934 c 0,0.4238 0.107,0.4738 0.631,0.4738 l 4.891,0 c 0.369,0 0.631,0.052 0.895,0.1059 0.263,0 0.474,0.05 0.632,0.05 0.316,0 0.525,-0.2637 0.473,-0.5231 -0.054,-0.4738 -0.317,-1.8437 -0.317,-7 l 0,-3.8898"
       style="fill:#ffffff;fill-opacity:1;fill-rule:nonzero;stroke:none"
       id="path70" /><path
       d="m 221.701,53.5879 c 0,-3.9438 1.788,-4.6277 2.736,-4.6277 1.209,0 2.735,0.2089 3.471,0.6839 0.264,0.1571 0.471,0.1039 0.633,-0.1043 l 0.262,-0.4726 c 0.157,-0.2133 0.051,-0.4242 -0.106,-0.5801 -0.525,-0.5262 -2.681,-2.1062 -5.84,-2.1062 -2.578,0 -5.102,2.473 -5.102,4.473 0,2.1563 0.157,6.7859 0.157,7.5211 l 0,1.159 c 0,0.9449 0.053,4.4711 0.108,6.6808 l -3.212,0 c -0.474,0 -0.787,0.2102 -0.787,0.6321 0,0.4222 0.313,0.5761 0.947,0.9472 1.262,0.734 5.311,4.834 5.997,6.6258 0.158,0.4223 0.422,0.5242 0.736,0.5242 0.42,0 0.526,-0.3671 0.526,-0.7882 l -0.264,-5.2059 7.312,0 c 0.317,0 0.474,-0.2629 0.37,-0.4738 l -0.526,-1.8422 c -0.055,-0.2629 -0.159,-0.4192 -0.476,-0.4192 l -6.786,0 c -0.103,-2.4187 -0.156,-4.9457 -0.156,-7.3648 l 0,-5.2621"
       style="fill:#ffffff;fill-opacity:1;fill-rule:nonzero;stroke:none"
       id="path72" /><path
       d="m 233.764,75.6801 c 0,3.2129 -0.633,3.7879 -2.523,4.4222 l -0.895,0.3149 c -0.317,0.107 -0.369,0.1582 -0.369,0.3141 l 0,0.4765 c 0,0.2082 0.157,0.259 0.632,0.5219 l 5.47,2.8965 c 0.421,0.2097 0.79,0.4176 1.21,0.4176 0.316,0 0.524,-0.4176 0.422,-1.3114 -0.106,-0.8933 -0.158,-11.5754 -0.158,-14.2094 l 0,-3.3609 0.26,0 c 1.843,2.2059 4.894,3.416 7.21,3.416 2.207,0 3.735,-0.6781 5.206,-2.1031 2.368,-2.207 2.262,-4.8961 2.262,-7.732 l 0,-2.9969 c 0,-2.9492 0.106,-6.2102 0.106,-7.2102 0,-0.6289 0.842,-0.789 1.946,-0.789 l 0.895,0 c 0.421,0 0.578,-0.1039 0.578,-0.4719 l 0,-0.7879 c 0,-0.4211 -0.106,-0.632 -0.42,-0.632 -0.369,0 -2.053,0.157 -5.051,0.157 -2.577,0 -4.469,-0.157 -4.945,-0.157 -0.366,0 -0.471,0.157 -0.471,0.5801 l 0,0.891 c 0,0.2636 0.053,0.4207 0.367,0.4207 l 1.209,0 c 0.895,0 1.946,0.107 2,1 0.053,0.7383 0,3.5242 0,5.2051 l 0,4.2621 c 0,2.9468 -0.21,5.05 -1.738,6.4738 -1.051,0.9961 -2.156,1.4723 -3.469,1.4723 -1.527,0 -3.422,-0.5262 -4.893,-2.2071 -0.476,-0.5793 -1.052,-1.634 -1.052,-2.5793 l 0,-11.4679 c 0,-1.6848 0.158,-2.159 1.158,-2.159 l 1.576,0 c 0.368,0 0.58,-0.1039 0.58,-0.4207 l 0,-0.891 c 0,-0.3692 -0.104,-0.5801 -0.422,-0.5801 -0.42,0 -2.578,0.157 -4.998,0.157 -2.631,0.002 -4.629,-0.157 -5.101,-0.157 -0.212,0 -0.369,0.159 -0.369,0.5258 l 0,0.9453 c 0,0.3699 0.211,0.4207 0.79,0.4207 l 1.104,0 c 0.84,0 1.629,0.2133 1.737,0.8441 0.156,0.9981 0.156,6.786 0.156,10.2078 l 0,15.8813"
       style="fill:#ffffff;fill-opacity:1;fill-rule:nonzero;stroke:none"
       id="path74" /><path
       d="m 268.904,62.5828 c 0.998,0 1.42,0.2652 1.42,0.7363 0,1.2079 -0.631,4.6829 -4.052,4.6829 -2.314,0 -4.522,-1.5239 -5.524,-5.4192 l 8.156,0 z m -8.365,-1.5738 c -0.105,-0.4801 -0.16,-1.318 -0.16,-2.5289 0,-5.1563 3.262,-9.0492 7.474,-9.0492 3.206,0 5.467,1.841 6.364,3.5793 0.104,0.2097 0.316,0.3136 0.474,0.2617 l 0.682,-0.3699 c 0.16,-0.0508 0.265,-0.209 0,-0.784 -0.947,-2.109 -3.684,-5.7371 -8.363,-5.7371 -3,0 -6.312,0.8929 -8.26,3.7339 -1.842,2.6864 -2.314,4.6321 -2.314,8.3114 0,2.0527 0.525,5.5777 3.314,8.3687 2.261,2.3133 4.892,2.7832 7.521,2.7832 6.049,0 7.735,-5.6801 7.735,-7.7301 0,-0.7371 -0.633,-0.839 -1.475,-0.839 l -12.992,0"
       style="fill:#ffffff;fill-opacity:1;fill-rule:nonzero;stroke:none"
       id="path76" /><path
       d="m 280.303,61.007 c 0,2.6809 -0.42,3.2078 -1.897,3.9969 l -0.999,0.5281 c -0.315,0.1051 -0.419,0.1551 -0.419,0.368 l 0,0.3129 c 0,0.2133 0.104,0.3133 0.419,0.4711 l 5.208,2.684 c 0.317,0.1601 0.528,0.2129 0.737,0.2129 0.318,0 0.371,-0.3161 0.371,-0.6297 l 0.26,-3.6332 0.211,0 c 1.577,2.4218 4.054,4.5781 6.318,4.5781 1.785,0 2.679,-1.1039 2.679,-2.316 0,-1.5211 -1.259,-2.5762 -2.209,-2.5762 -0.576,0 -1.102,0.2102 -1.523,0.4211 -0.422,0.2621 -1.053,0.4199 -1.738,0.4199 -0.844,0 -2.211,-0.5269 -3.104,-2.2097 -0.316,-0.5801 -0.526,-1.527 -0.526,-1.6813 l 0,-11.0508 c 0,-1.6281 0.367,-2.1519 1.472,-2.1519 l 2.472,0 c 0.315,0 0.371,-0.1614 0.371,-0.4762 l 0,-0.9469 c 0,-0.316 -0.056,-0.473 -0.261,-0.473 -0.319,0 -2.741,0.157 -5.582,0.157 -3.261,0 -5.471,-0.157 -5.784,-0.157 -0.211,0 -0.32,0.1051 -0.32,0.5277 l 0,0.8922 c 0,0.368 0.109,0.4762 0.581,0.4762 l 2.052,0 c 0.791,0 1.158,0.316 1.158,0.9957 0.053,1.7363 0.053,3.5769 0.053,6.316 l 0,4.9441"
       style="fill:#ffffff;fill-opacity:1;fill-rule:nonzero;stroke:none"
       id="path78" /><path
       d="m 315.688,49.8539 c 0,-0.8449 0.472,-1.107 1.155,-1.107 l 1.684,0 c 0.477,0 0.58,-0.1571 0.58,-0.4719 l 0,-0.8398 c 0,-0.3692 -0.103,-0.5801 -0.419,-0.5801 -0.37,0 -2,0.157 -5,0.157 -2.682,0 -4.366,-0.157 -4.731,-0.157 -0.317,0 -0.422,0.157 -0.422,0.5801 l 0,0.8398 c 0,0.368 0.154,0.4719 0.682,0.4719 l 1.524,0 c 0.581,0 1.001,0.2621 1.052,1.2109 0.054,1.3672 0.108,3.0524 0.108,4.4172 l 0,6.948 c 0,2.1032 0,3.6282 -1.526,4.736 -1.264,0.9422 -2.526,0.9422 -3.839,0.9422 -0.846,0 -2.683,-0.3672 -4.261,-2.05 -1.054,-1.1602 -1.212,-2.5774 -1.212,-3.5793 l 0,-10.8867 c 0,-1.418 0.158,-1.7383 1.262,-1.7383 l 1.316,0 c 0.422,0 0.525,-0.1571 0.525,-0.5258 l 0,-0.893 c 0,-0.316 -0.103,-0.473 -0.368,-0.473 -0.364,0 -1.786,0.157 -4.576,0.157 -2.681,0 -4.363,-0.157 -4.681,-0.157 -0.262,0 -0.368,0.157 -0.368,0.473 l 0,0.9469 c 0,0.3148 0.106,0.4719 0.525,0.4719 l 1.527,0 c 0.683,0 1.052,0.1601 1.052,1.0543 l 0,12.307 c 0,1.5797 -0.843,2.4719 -2.159,3.1059 l -0.42,0.2129 c -0.366,0.1558 -0.419,0.3152 -0.419,0.4699 l 0,0.2633 c 0,0.266 0.207,0.4218 0.473,0.5238 l 4.523,2.5301 c 0.42,0.2109 0.737,0.3668 0.947,0.3668 0.262,0 0.37,-0.2129 0.423,-0.6297 l 0.365,-3.209 0.105,0 c 1.53,1.8949 4.575,3.8387 7.209,3.8387 1.578,0 3.207,-0.3161 4.471,-1.159 1.577,-1.0508 2.893,-3.6789 2.893,-4.9957 l 0,-13.5723"
       style="fill:#ffffff;fill-opacity:1;fill-rule:nonzero;stroke:none"
       id="path80" /><path
       d="m 335.837,51.0621 c -3.79,3.5758 -5.627,9.684 -5.627,14.7309 0,4.889 1.577,9.939 5.36,13.9359 2.686,2.8473 7.42,5.316 13.155,5.316 4.787,0 8.732,-1.7871 10.626,-2.8906 0.684,-0.4246 0.944,-0.3699 1.053,0 l 0.42,1.5215 c 0.105,0.3203 0.211,0.3203 0.682,0.3203 0.475,0 0.578,-0.1055 0.578,-0.8445 0,-0.9973 1.054,-8.7317 1.315,-10.2036 0.052,-0.266 0,-0.4742 -0.21,-0.5289 L 362.4,72.2109 c -0.261,-0.0539 -0.366,0 -0.525,0.4172 -0.736,1.7379 -1.893,4.266 -4.104,6.5297 -2.208,2.2582 -4.996,4.0465 -9.154,4.0473 -9.416,0 -13.201,-8.361 -13.149,-16.0449 0,-3.0493 0.948,-8.9961 5.05,-13.5204 3.575,-3.9957 6.575,-4.4148 10.096,-4.4148 5.95,0 10.576,3.2602 12.997,6.6781 0.158,0.2649 0.262,0.3141 0.42,0.1598 l 0.686,-0.527 c 0.155,-0.1078 0.262,-0.2129 0.104,-0.4738 -3.157,-4.5769 -8.257,-8.8402 -15.675,-8.8402 -6.208,0 -10.154,1.9472 -13.309,4.8402"
       style="fill:#ffffff;fill-opacity:1;fill-rule:nonzero;stroke:none"
       id="path82" /><path
       d="m 377.943,58.5852 c -1.894,-1.4223 -7.048,-2.4711 -7.048,-6.834 0,-1.95 1.156,-2.8973 2.736,-2.8973 1.521,0 4.312,1.8422 4.312,3.2641 l 0,6.4672 z m 3.84,-5.3133 c 0,-3 0.629,-3.943 1.578,-3.943 0.841,0 1.579,0.418 1.839,0.7859 0.212,0.2672 0.318,0.3704 0.529,0.2102 l 0.525,-0.4199 c 0.162,-0.1582 0.264,-0.4242 -0.053,-0.9461 -0.42,-0.7899 -1.42,-2.5781 -4.103,-2.5781 -1.894,0 -3.262,1.3711 -3.734,3.5242 l -0.104,0 c -1.109,-1.3153 -2.843,-2.418 -5.209,-3.2063 -1,-0.3179 -1.948,-0.3179 -3.102,-0.3179 -1.267,0 -3.159,1.0543 -3.159,4.3691 0,2.416 1.106,4.5219 5.261,6.3648 2.37,1.0512 5.1,2.3133 5.943,3.0461 l 0,3.3711 c -0.103,0.893 -0.156,2.261 -0.736,2.9418 -0.578,0.6864 -1.629,1.1633 -3.158,1.1633 -1.049,0 -2.681,-0.4242 -3.414,-1.1109 -0.737,-0.6793 -0.265,-1.4703 -0.265,-2.4153 0,-1.841 -0.634,-3 -2.79,-3 -0.841,0 -1.26,0.4743 -1.26,1.6852 0,1.682 1.471,3.6777 3.63,4.9437 2.208,1.3161 4.049,1.8383 6.417,1.8383 2.473,0 3.472,-0.7359 4.211,-1.4191 1.102,-1.1059 1.154,-2.3121 1.154,-3.734 l 0,-11.1531"
       style="fill:#ffffff;fill-opacity:1;fill-rule:nonzero;stroke:none"
       id="path84" /><path
       d="m 395.048,62.6891 c 0,-2.7332 0,-10.6782 0.054,-12.3071 0.052,-0.8968 0.26,-1.6351 1.368,-1.6351 l 2.366,0 c 0.474,0 0.579,-0.1571 0.579,-0.4719 l 0,-0.8941 c 0,-0.3118 -0.105,-0.5258 -0.314,-0.5258 -0.37,0 -2.686,0.157 -5.945,0.157 -3.367,0 -5.47,-0.157 -5.947,-0.157 -0.26,0 -0.364,0.214 -0.364,0.5258 l 0,0.8941 c 0,0.368 0.104,0.4719 0.68,0.4719 l 2.524,0 c 0.582,0 1.107,0.3691 1.158,1.3191 0.053,1.6301 0.053,10.6801 0.053,13.725 l 0,3.316 c 0,3.7379 -0.053,8.5211 -0.158,9.8918 -0.105,1.7891 -0.944,2.6274 -2.627,3.1535 l -1.054,0.3719 c -0.262,0.0996 -0.316,0.1528 -0.316,0.2629 l 0,0.4192 c 0,0.157 0.159,0.2605 0.476,0.3691 1.841,0.8426 4.204,1.7867 6.15,3.0508 0.476,0.3164 0.792,0.4207 1.107,0.4207 0.369,0 0.475,-0.2656 0.424,-0.9473 -0.055,-2.8933 -0.214,-13.8348 -0.214,-16.7285 l 0,-4.682"
       style="fill:#ffffff;fill-opacity:1;fill-rule:nonzero;stroke:none"
       id="path86" /><path
       d="m 402.253,78.366 c 0,1.316 1.105,2.7324 3.209,2.7324 1.842,0 2.735,-1.4164 2.735,-2.5765 0,-1.3668 -0.948,-2.8938 -3.051,-2.8938 -1.157,0 -2.893,1.0547 -2.893,2.7379 m 2.365,-16.0469 c 0,1.7899 -0.314,2.7368 -2.946,3.159 -0.367,0.0539 -0.473,0.1551 -0.473,0.3668 l 0,0.4731 c 0,0.159 0.106,0.264 0.369,0.366 1.686,0.6351 3.682,1.475 5.681,2.5789 0.421,0.2109 0.684,0.3152 0.997,0.3152 0.268,0 0.321,-0.2609 0.268,-0.6269 -0.105,-0.8942 -0.105,-4.2114 -0.105,-8.5782 l 0,-5.7332 c 0,-2.0507 0,-3.9437 0.05,-4.5218 0.108,-1.002 0.26,-1.3668 0.842,-1.3668 l 2.424,0 c 0.416,0 0.519,-0.1614 0.519,-0.4762 l 0,-0.8941 c 0,-0.3688 -0.103,-0.5258 -0.469,-0.5258 -0.421,0 -2.841,0.157 -5.05,0.157 -3.052,0 -5.106,-0.157 -5.682,-0.157 -0.26,0 -0.422,0.1051 -0.422,0.4187 l 0,1.0551 c 0,0.3141 0.162,0.4223 0.528,0.4223 l 2.576,0 c 0.579,0 0.792,0.2078 0.84,1.05 0.053,1.5808 0.053,3.209 0.053,4.7898 l 0,7.7281"
       style="fill:#ffffff;fill-opacity:1;fill-rule:nonzero;stroke:none"
       id="path88" /><path
       d="m 417.904,66.4262 -3.632,0 c -0.258,0 -0.366,0.1039 -0.258,0.575 l 0.209,1.5816 c 0.049,0.3172 0.207,0.3641 0.629,0.3641 l 3.052,0 0,1.0031 c 0,5.2059 1.47,8.625 3.524,10.9395 2.788,3.0492 5.682,4.1554 8.627,4.1554 2.47,0 4.787,-0.9453 4.787,-2.9426 0,-1.2644 -1.367,-2.2652 -2.209,-2.2652 -0.527,0 -1.056,0.1051 -1.473,0.3172 -0.476,0.2629 -1.053,0.9465 -1.263,1.207 -0.685,0.8438 -1.418,1.211 -2.42,1.211 -1.368,0 -2.789,-0.3672 -3.948,-1.8418 -1.944,-2.4727 -1.84,-7.0485 -1.84,-10.7305 l 0,-1.0531 6.367,0 c 0.368,0 0.423,-0.3117 0.368,-0.525 l -0.26,-1.7379 c -0.053,-0.2102 -0.265,-0.2578 -0.687,-0.2578 l -5.788,0 0,-4.6852 c 0,-6.2051 0,-11.0469 0.056,-11.6262 0.105,-0.8918 0.263,-1.3679 1.37,-1.3679 l 2.994,0 c 0.473,0 0.578,-0.1039 0.578,-0.418 l 0,-0.8418 c 0,-0.4211 -0.105,-0.632 -0.365,-0.632 -0.32,0 -2.263,0.157 -6.314,0.157 -2.893,0 -5.578,-0.157 -5.994,-0.157 -0.321,0 -0.426,0.1051 -0.426,0.3679 l 0,1.1579 c 0,0.2621 0.105,0.366 0.527,0.366 l 2.526,0 c 1,0 1.211,0.6332 1.263,1.8422 l 0,15.8371"
       style="fill:#ffffff;fill-opacity:1;fill-rule:nonzero;stroke:none"
       id="path90" /><path
       d="m 445.588,58.4801 c 0,5.841 -4.26,9.5219 -6.943,9.5219 -1.42,0 -2.791,-0.318 -4.051,-1.684 -2.051,-2.1032 -2.789,-4.259 -2.789,-8.2578 0,-2.9473 0.316,-4.9473 2.002,-7.3641 1.209,-1.7371 2.734,-2.7352 5.207,-2.7352 3.998,0 6.574,4.8922 6.574,10.5192 m -15.201,-8.468 c -2.421,2.8899 -2.896,4.8359 -2.896,8.5731 0,2.6839 1.42,6.05 4.525,8.4679 2.736,2.1078 5.316,2.525 7.048,2.525 2.895,0 5.788,-1.4722 7.368,-3.0519 2.367,-2.4172 3.576,-5.1543 3.576,-8.5731 0,-5.7351 -5.156,-11.5722 -11.626,-11.5722 -2.528,0 -5.786,1.0019 -7.995,3.6312"
       style="fill:#ffffff;fill-opacity:1;fill-rule:nonzero;stroke:none"
       id="path92" /><path
       d="m 454.204,61.007 c 0,2.6809 -0.421,3.2078 -1.896,3.9969 l -0.996,0.5281 c -0.317,0.1051 -0.421,0.1551 -0.421,0.368 l 0,0.3121 c 0,0.2141 0.104,0.3141 0.421,0.4719 l 5.206,2.684 c 0.314,0.1601 0.524,0.2129 0.736,0.2129 0.314,0 0.367,-0.3161 0.367,-0.6297 l 0.264,-3.6332 0.209,0 c 1.579,2.4218 4.054,4.5781 6.316,4.5781 1.788,0 2.68,-1.1039 2.68,-2.316 0,-1.5211 -1.261,-2.5762 -2.207,-2.5762 -0.579,0 -1.108,0.2102 -1.528,0.4211 -0.421,0.2621 -1.052,0.4199 -1.734,0.4199 -0.843,0 -2.208,-0.5269 -3.101,-2.2097 -0.315,-0.5801 -0.53,-1.527 -0.53,-1.6813 l 0,-11.0508 c 0,-1.6281 0.367,-2.1519 1.473,-2.1519 l 2.474,0 c 0.316,0 0.366,-0.1614 0.366,-0.4762 l 0,-0.9469 c 0,-0.316 -0.05,-0.473 -0.262,-0.473 -0.316,0 -2.736,0.157 -5.576,0.157 -3.262,0 -5.47,-0.157 -5.787,-0.157 -0.21,0 -0.315,0.1051 -0.315,0.5277 l 0,0.8922 c 0,0.368 0.105,0.4762 0.576,0.4762 l 2.053,0 c 0.791,0 1.158,0.316 1.158,0.9957 0.054,1.7363 0.054,3.5769 0.054,6.316 l 0,4.9441"
       style="fill:#ffffff;fill-opacity:1;fill-rule:nonzero;stroke:none"
       id="path94" /><path
       d="m 489.5,49.8539 c 0,-0.8449 0.475,-1.107 1.158,-1.107 l 1.686,0 c 0.47,0 0.578,-0.1571 0.578,-0.4719 l 0,-0.8398 c 0,-0.3692 -0.108,-0.5801 -0.424,-0.5801 -0.365,0 -1.994,0.157 -4.996,0.157 -2.684,0 -4.365,-0.157 -4.732,-0.157 -0.318,0 -0.422,0.157 -0.422,0.5801 l 0,0.8398 c 0,0.368 0.154,0.4719 0.683,0.4719 l 1.526,0 c 0.578,0 0.998,0.2621 1.052,1.2109 0.053,1.3672 0.106,3.0524 0.106,4.4172 l 0,6.948 c 0,2.1032 0,3.6282 -1.526,4.736 -1.265,0.9422 -2.525,0.9422 -3.841,0.9422 -0.843,0 -2.68,-0.3672 -4.259,-2.05 -1.051,-1.1602 -1.212,-2.5774 -1.212,-3.5793 l 0,-10.8867 c 0,-1.418 0.161,-1.7383 1.264,-1.7383 l 1.312,0 c 0.422,0 0.527,-0.1571 0.527,-0.5258 l 0,-0.893 c 0,-0.316 -0.105,-0.473 -0.367,-0.473 -0.369,0 -1.79,0.157 -4.58,0.157 -2.682,0 -4.364,-0.157 -4.679,-0.157 -0.262,0 -0.369,0.157 -0.369,0.473 l 0,0.9469 c 0,0.3148 0.107,0.4719 0.527,0.4719 l 1.523,0 c 0.686,0 1.055,0.1601 1.055,1.0543 l 0,12.307 c 0,1.5797 -0.841,2.4719 -2.156,3.1059 l -0.422,0.2129 c -0.369,0.1558 -0.42,0.3152 -0.42,0.4699 l 0,0.2633 c 0,0.266 0.211,0.4218 0.472,0.5238 l 4.522,2.5289 c 0.424,0.2121 0.737,0.368 0.951,0.368 0.262,0 0.366,-0.2129 0.416,-0.6297 l 0.373,-3.209 0.102,0 c 1.527,1.8949 4.577,3.8387 7.21,3.8387 1.575,0 3.21,-0.3161 4.472,-1.159 1.576,-1.0508 2.89,-3.6789 2.89,-4.9957 l 0,-13.5723"
       style="fill:#ffffff;fill-opacity:1;fill-rule:nonzero;stroke:none"
       id="path96" /><path
       d="m 495.872,78.366 c 0,1.316 1.105,2.7324 3.208,2.7324 1.84,0 2.736,-1.4164 2.736,-2.5765 0,-1.3668 -0.949,-2.8938 -3.054,-2.8938 -1.156,0 -2.89,1.0547 -2.89,2.7379 m 2.362,-16.0469 c 0,1.7899 -0.312,2.7368 -2.947,3.159 -0.363,0.0539 -0.469,0.1551 -0.469,0.3668 l 0,0.4731 c 0,0.159 0.106,0.264 0.368,0.366 1.681,0.6351 3.683,1.475 5.681,2.5789 0.42,0.2109 0.684,0.3152 1.001,0.3152 0.259,0 0.315,-0.2609 0.259,-0.6269 -0.104,-0.8942 -0.104,-4.2114 -0.104,-8.5782 l 0,-5.7332 c 0,-2.0507 0,-3.9437 0.055,-4.5218 0.105,-1.002 0.26,-1.3668 0.842,-1.3668 l 2.418,0 c 0.424,0 0.524,-0.1614 0.524,-0.4762 l 0,-0.8941 c 0,-0.3688 -0.1,-0.5258 -0.469,-0.5258 -0.424,0 -2.844,0.157 -5.052,0.157 -3.049,0 -5.103,-0.157 -5.683,-0.157 -0.26,0 -0.418,0.1051 -0.418,0.4187 l 0,1.0551 c 0,0.3141 0.158,0.4223 0.526,0.4223 l 2.576,0 c 0.58,0 0.791,0.2078 0.842,1.05 0.05,1.5808 0.05,3.209 0.05,4.7898 l 0,7.7281"
       style="fill:#ffffff;fill-opacity:1;fill-rule:nonzero;stroke:none"
       id="path98" /><path
       d="m 518.649,58.5852 c -1.894,-1.4223 -7.049,-2.4711 -7.049,-6.834 0,-1.95 1.158,-2.8973 2.736,-2.8973 1.525,0 4.313,1.8422 4.313,3.2641 l 0,6.4672 z m 3.841,-5.3133 c 0,-3 0.631,-3.943 1.574,-3.943 0.847,0 1.583,0.418 1.844,0.7859 0.21,0.2672 0.318,0.3704 0.528,0.2102 l 0.521,-0.4199 c 0.156,-0.1582 0.268,-0.4242 -0.052,-0.9461 -0.42,-0.7899 -1.415,-2.5781 -4.101,-2.5781 -1.892,0 -3.259,1.3711 -3.736,3.5242 l -0.105,0 c -1.104,-1.3153 -2.839,-2.418 -5.207,-3.2063 -0.998,-0.3179 -1.945,-0.3179 -3.102,-0.3179 -1.263,0 -3.158,1.0543 -3.158,4.3691 0,2.416 1.106,4.5219 5.262,6.3648 2.365,1.0512 5.101,2.3133 5.943,3.0461 l 0,3.3711 c -0.104,0.893 -0.159,2.261 -0.738,2.9418 -0.578,0.6864 -1.63,1.1633 -3.153,1.1633 -1.054,0 -2.685,-0.4242 -3.42,-1.1109 -0.736,-0.6793 -0.265,-1.4703 -0.265,-2.4153 0,-1.841 -0.629,-3 -2.785,-3 -0.844,0 -1.266,0.4743 -1.266,1.6852 0,1.682 1.475,3.6777 3.631,4.9437 2.211,1.3161 4.049,1.8383 6.42,1.8383 2.473,0 3.469,-0.7359 4.207,-1.4191 1.106,-1.1059 1.158,-2.3121 1.158,-3.734 l 0,-11.1531"
       style="fill:#ffffff;fill-opacity:1;fill-rule:nonzero;stroke:none"
       id="path100" /></g></svg>