<?xml version="1.0" encoding="UTF-8" standalone="no"?>
<!-- Created with Inkscape (http://www.inkscape.org/) -->

<svg
   xmlns:dc="http://purl.org/dc/elements/1.1/"
   xmlns:cc="http://creativecommons.org/ns#"
   xmlns:rdf="http://www.w3.org/1999/02/22-rdf-syntax-ns#"
   xmlns:svg="http://www.w3.org/2000/svg"
   xmlns="http://www.w3.org/2000/svg"
   xmlns:sodipodi="http://sodipodi.sourceforge.net/DTD/sodipodi-0.dtd"
   xmlns:inkscape="http://www.inkscape.org/namespaces/inkscape"
   width="106.35536mm"
   height="74.236908mm"
   viewBox="0 0 106.35536 74.236908"
   version="1.1"
   id="svg8"
   inkscape:version="0.92.4 (5da689c313, 2019-01-14)"
   sodipodi:docname="vce.svg"
   inkscape:export-filename="/home/marco/Projects/vce-web/img/vce.png"
   inkscape:export-xdpi="269.92999"
   inkscape:export-ydpi="269.92999">
  <defs
     id="defs2">
    <inkscape:path-effect
       effect="bspline"
       id="path-effect832"
       is_visible="true"
       weight="33.333333"
       steps="4"
       helper_size="0"
       apply_no_weight="true"
       apply_with_weight="true"
       only_selected="false" />
    <inkscape:path-effect
       effect="bspline"
       id="path-effect828"
       is_visible="true"
       weight="33.333333"
       steps="2"
       helper_size="0"
       apply_no_weight="true"
       apply_with_weight="true"
       only_selected="false" />
  </defs>
  <sodipodi:namedview
     id="base"
     pagecolor="#ffffff"
     bordercolor="#666666"
     borderopacity="1.0"
     inkscape:pageopacity="0.0"
     inkscape:pageshadow="2"
     inkscape:zoom="1.4142136"
     inkscape:cx="318.4932"
     inkscape:cy="25.110555"
     inkscape:document-units="mm"
     inkscape:current-layer="layer1"
     showgrid="false"
     inkscape:window-width="1920"
     inkscape:window-height="1147"
     inkscape:window-x="0"
     inkscape:window-y="0"
     inkscape:window-maximized="1"
     fit-margin-top="5"
     fit-margin-left="5"
     fit-margin-right="5"
     fit-margin-bottom="5" />
  <metadata
     id="metadata5">
    <rdf:RDF>
      <cc:Work
         rdf:about="">
        <dc:format>image/svg+xml</dc:format>
        <dc:type
           rdf:resource="http://purl.org/dc/dcmitype/StillImage" />
        <dc:title />
      </cc:Work>
    </rdf:RDF>
  </metadata>
  <g
     inkscape:label="Layer 1"
     inkscape:groupmode="layer"
     id="layer1"
     transform="translate(0.9264878,-15.107204)">
    <g
       id="g1621"
       transform="matrix(2.0074034,0,0,2.0074034,-11.985715,-7.9964433)"
       style="fill:#f7981f;fill-opacity:1">
      <path
         style="fill:#fac582;fill-opacity:1"
         inkscape:connector-curvature="0"
         id="path1619"
         d="M 48,30 C 48,21.2 40.8,14 32,14 24.5,14 18.2,19.2 16.5,26.1 11.7,26.9 8,31 8,36 c 0,5.5 4.5,10 10,10 h 30 c 4.4,0 8,-3.6 8,-8 0,-4.4 -3.6,-8 -8,-8 z"
         class="st3" />
    </g>
    <circle
       id="path815"
       cx="52.516911"
       cy="55.154129"
       r="24.190477"
       style="fill:#6fb1ff;fill-opacity:1;stroke:#191919;stroke-width:0.5;stroke-miterlimit:4;stroke-dasharray:none;stroke-opacity:1" />
    <path
       style="fill:none;stroke:#000000;stroke-width:1;stroke-linecap:butt;stroke-linejoin:miter;stroke-miterlimit:4;stroke-dasharray:none;stroke-opacity:1"
       d="m 79.032667,74.41706 c 0.129976,0.386416 0.259548,0.771632 0.324132,1.028341 0.06458,0.25671 0.06458,0.385114 0.06458,0.641925 0,0.25681 0,0.642026 0,0.930938 0,0.288911 0,0.481519 0.0329,0.609922 0.0329,0.128402 0.09768,0.192604 0.129573,0.321012 0.03189,0.128408 0.03189,0.321016 0.09718,0.48152 0.06529,0.160505 0.194861,0.28891 0.29204,0.385214 0.09718,0.0963 0.161967,0.160505 0.193858,0.385217 0.03189,0.224711 0.03189,0.609927 0.03189,0.834635 0,0.224708 0,0.288912 0.162516,0.449355 0.162516,0.160443 0.486446,0.417253 0.713149,0.609922 0.226703,0.19267 0.356276,0.321075 0.485945,0.417178 0.12967,0.0961 0.259244,0.160306 0.388718,0.25681 0.129474,0.0965 0.259047,0.224909 0.356226,0.321214 0.09718,0.0963 0.161965,0.160506 0.259142,0.192109 0.09718,0.0316 0.22675,0.0316 0.388717,0.128406 0.161967,0.0968 0.356325,0.289409 0.453001,0.417816 0.09668,0.128406 0.09668,0.19261 0.194359,0.321013 0.09768,0.128403 0.29204,0.321011 0.421613,0.449417 0.129573,0.128405 0.194359,0.192607 0.259145,0.256811 0.06479,0.0642 0.129572,0.128403 0.226748,0.160007 0.09718,0.0316 0.226749,0.0316 0.32393,0.0316 0.09718,0 0.161964,0 0.226753,0.0326 0.06479,0.0326 0.129576,0.0968 0.291539,0.128407 0.161963,0.0316 0.421107,0.0316 0.583075,0.0642 0.161969,0.0326 0.226753,0.0968 0.32393,0.128403 0.09718,0.0316 0.22675,0.0316 0.323932,0.0316 0.09718,0 0.161962,0 0.226751,0.0326 0.06479,0.0326 0.129575,0.0968 0.259223,0.192991 0.129648,0.09619 0.324005,0.224593 0.583072,0.288413 0.259066,0.06382 0.582996,0.06382 1.133679,0.06382 0.550682,0 1.328117,0 1.911193,0 0.583075,0 0.971793,0 1.198544,0.0326 0.226752,0.0326 0.291541,0.09681 0.421113,0.22521 0.129572,0.128405 0.323932,0.321012 0.453504,0.449418 0.129573,0.128405 0.194358,0.192607 0.259143,0.224211 0.06479,0.0316 0.129569,0.0316 0.194358,0.0642 0.06479,0.0326 0.129575,0.0968 0.194361,0.161003 0.06479,0.0642 0.129572,0.128405 0.226751,0.224709 0.09718,0.0963 0.226751,0.22471 0.323931,0.321014 0.09718,0.0963 0.161965,0.160507 0.258945,0.321115 0.09698,0.160608 0.226552,0.417417 0.388717,0.642025 0.162165,0.224607 0.356524,0.417214 0.453201,0.577723 0.09668,0.160509 0.09668,0.288915 0.162063,0.385016 0.06539,0.0961 0.19496,0.160303 0.259145,0.224707 0.06419,0.0644 0.06419,0.128609 0.06419,0.128611 0,10e-7 0,-0.06421 0.03289,-0.06421 0.03289,-5e-6 0.09768,0.0642 0.162468,0.128406 0.06479,0.0642 0.129573,0.128405 0.161464,0.192609 0.03189,0.0642 0.03189,0.128408 0.06479,0.192608 0.03289,0.0642 0.09768,0.128403 0.129573,0.22471 0.03189,0.09631 0.03189,0.224711 0.06479,0.288414 0.03289,0.0637 0.09768,0.0637 0.129569,0.0963 0.03189,0.0326 0.03189,0.0968 0.03189,0.09681 0,10e-7 0,-0.0642 0,-0.0321 0,0.0321 0,0.160506 0,0.256809 0,0.0963 0,0.160508 0.09768,0.288911 0.09768,0.128403 0.29204,0.321009 0.454005,0.481515 0.161966,0.160506 0.291538,0.288912 0.388718,0.385216 0.09718,0.0963 0.161966,0.160506 0.161966,0.160506 0,0 -0.06479,-0.0642 -0.03239,-0.0321 0.03239,0.0321 0.161966,0.160508 0.323929,0.224214 0.161963,0.0637 0.356321,0.0637 0.54968,0.0637"
       id="path824"
       inkscape:connector-curvature="0"
       inkscape:original-d="m 79.032667,74.41706 c 0.130572,0.386215 0.260144,0.771431 0.388716,1.155646 10e-4,0.129405 10e-4,0.257809 0,0.385214 10e-4,0.386216 10e-4,0.771432 0,1.155648 10e-4,0.193607 10e-4,0.386215 0,0.577822 0.06579,0.0652 0.130573,0.129405 0.19436,0.192608 0.001,0.193608 0.001,0.386216 0,0.577824 0.130572,0.129405 0.260144,0.257811 0.388716,0.385216 0.06579,0.0652 0.130574,0.129404 0.194361,0.192606 0.001,0.386216 0.001,0.771432 0,1.155648 0.001,0.0652 0.001,0.129404 0,0.192606 0.324931,0.257811 0.648861,0.514621 0.971792,0.770432 0.130572,0.129405 0.260144,0.257811 0.388716,0.385216 0.130572,0.0652 0.260145,0.129404 0.388717,0.192606 0.130572,0.129405 0.260145,0.257811 0.388717,0.385216 0.06579,0.0652 0.130573,0.129405 0.194359,0.192608 0.130572,0.001 0.260145,0.001 0.388717,0 0.195358,0.193608 0.389715,0.386216 0.583073,0.577824 0.001,0.0652 0.001,0.129404 0,0.192606 0.195359,0.193608 0.389717,0.386217 0.583076,0.577825 0.06579,0.0652 0.130573,0.129405 0.19436,0.192608 0.06579,0.0652 0.130571,0.129404 0.194357,0.192606 0.130572,0.001 0.260144,0.001 0.388716,0 0.06579,0.001 0.130573,0.001 0.19436,0 0.06579,0.0652 0.130573,0.129407 0.194359,0.19261 0.260145,0.001 0.519289,0.001 0.777434,0 0.06579,0.0652 0.130571,0.129403 0.194357,0.192605 0.130573,0.001 0.260146,0.001 0.388719,0 0.06579,0.001 0.130571,0.001 0.194357,0 0.06579,0.0652 0.130573,0.129406 0.19436,0.192609 0.195358,0.129405 0.389715,0.25781 0.583073,0.385215 0.324931,10e-4 0.648861,10e-4 0.971792,0 0.778434,10e-4 1.555869,10e-4 2.332303,0 0.389717,10e-4 0.778435,10e-4 1.166152,0 0.06578,0.0652 0.130571,0.129406 0.194356,0.192609 0.195359,0.193607 0.389718,0.386215 0.583077,0.577822 0.06579,0.0652 0.130571,0.129406 0.194357,0.192609 0.06579,0.001 0.130573,0.001 0.194359,0 0.06579,0.0652 0.130573,0.129404 0.19436,0.192606 0.06579,0.0652 0.130571,0.129406 0.194357,0.192609 0.130572,0.129405 0.260145,0.25781 0.388717,0.385215 0.06579,0.0652 0.130573,0.129406 0.194359,0.192609 0.130572,0.25781 0.260145,0.514619 0.388717,0.770429 0.195359,0.193608 0.389717,0.386216 0.583076,0.577824 10e-4,0.129405 10e-4,0.257811 0,0.385216 0.130572,0.0652 0.260145,0.129404 0.388717,0.192606 10e-4,0.0652 10e-4,0.129406 0,0.192609 10e-4,-0.0632 10e-4,-0.127406 0,-0.192609 0.06578,0.0652 0.130571,0.129406 0.194356,0.192609 0.06579,0.0652 0.130573,0.129406 0.19436,0.192609 10e-4,0.0652 10e-4,0.129404 0,0.192606 0.06579,0.0652 0.130573,0.129406 0.19436,0.192609 0.001,0.129405 0.001,0.25781 0,0.385215 0.06579,10e-4 0.130571,10e-4 0.194356,0 0.001,0.0652 0.001,0.129405 0,0.192607 0.001,-0.0632 0.001,-0.127405 0,-0.192607 0.001,0.129405 0.001,0.25781 0,0.385215 0.001,0.0652 0.001,0.129406 0,0.192609 0.195359,0.193607 0.389717,0.386214 0.583076,0.577821 0.130572,0.129405 0.260145,0.25781 0.388717,0.385215 0.06579,0.0652 0.130573,0.129406 0.19436,0.192609 -0.06379,-0.0632 -0.128573,-0.127406 -0.19436,-0.192609 0.130572,0.129406 0.260145,0.257813 0.388717,0.385219 0.195359,10e-4 0.389717,10e-4 0.583076,0"
       inkscape:path-effect="#path-effect832"
       transform="translate(-22.322378,-43.030394)" />
    <path
       style="fill:none;stroke:#000000;stroke-width:1;stroke-linecap:butt;stroke-linejoin:miter;stroke-miterlimit:4;stroke-dasharray:none;stroke-opacity:1"
       d="m 59.910449,79.076095 c 0.251853,0.06746 0.512087,0.137167 0.659489,0.224772 0.147403,0.08761 0.221999,0.247456 0.284963,0.382379 0.06296,0.134923 0.126826,0.271769 0.189153,0.371797 0.06233,0.100028 0.13037,0.172933 0.159498,0.26814 0.02913,0.09521 0.02913,0.243978 0.05826,0.339187 0.02913,0.09521 0.101507,0.172754 0.130635,0.295036 0.02913,0.122281 0.02913,0.36514 0.06053,0.523499 0.0314,0.15836 0.0953,0.295294 0.126395,0.427369 0.03109,0.132076 0.03109,0.271028 0.03109,0.372223 0,0.101195 0,0.175771 0.08695,0.299104 0.08695,0.123333 0.305814,0.357828 0.392767,0.481157 0.08695,0.12333 0.08695,0.205042 0.265566,0.522269 0.178613,0.317228 -0.178613,-0.25689 0.01028,0.144856 0.188889,0.401745 0.188889,0.620555 0.220289,0.783841 0.0314,0.163286 0.09447,0.29843 0.157335,0.466741 0.06287,0.16831 0.127065,0.374661 0.219158,0.539742 0.09209,0.16508 0.231157,0.314078 0.289412,0.472494 0.05826,0.158416 0.05826,0.381568 0.247147,0.781141 0.188891,0.399573 -0.188891,-0.207576 0,0.126099 0.188891,0.333674 0.188891,1.402638 0.188891,1.543081 0,0.140442 0,1.098966 -0.03055,1.161714 -0.03055,0.06275 -0.09723,0.134191 -0.127786,0.19709 -0.03055,0.0629 -0.03055,0.13749 -0.03055,0.238682 0,0.101192 0,0.243038 -0.132496,0.378018 -0.132497,0.13498 -0.0438,0.08746 -0.227591,0.230413 -0.18379,0.14295 -0.418268,0.394175 -0.529476,0.483155 -0.111208,0.08898 -0.187462,0.08898 -0.244799,0.120245 -0.05734,0.03127 -0.129508,0.108592 -0.186848,0.139856 -0.05734,0.03126 -0.133595,0.03126 -0.190388,0.06194 -0.05679,0.03068 -0.498553,0.503998 -0.563405,0.606731 -0.06485,0.102733 -0.129615,0.24151 -0.277294,0.401742 -0.147678,0.160231 -0.469689,0.418991 -0.664263,0.803025 -0.194573,0.384034 -0.03265,-0.136419 -0.144164,0.156541 -0.111511,0.29296 -0.181041,0.367459 -0.21017,0.462666 -0.02913,0.09521 -0.02913,0.237056 -0.02913,0.338242 0,0.101185 0,0.17578 -0.113727,0.236412 -0.113726,0.06063 -0.386182,0.133611 -0.545494,0.16785 -0.159311,0.03424 -0.228914,0.03424 -0.28625,0.0655 -0.05734,0.03126 -0.129614,0.108703 -0.158742,0.173233 -0.02913,0.06453 -0.02913,1.347926 -3e-6,1.412454 0.02913,0.06453 0.09866,0.139028 0.129212,0.235365 0.03055,0.09634 0.03055,0.651463 0.175474,0.870337 0.144921,0.218874 0.182383,0.259012 0.396511,0.69082 0.214128,0.431807 0.02671,-0.170604 0.151821,0.197887 0.125107,0.368491 0.189011,0.505427 0.220104,0.637502 0.03109,0.132076 0.03109,0.275056 0.115013,0.475371 0.08392,0.200315 0.147991,0.30329 0.252411,0.454241 0.10442,0.150952 0.169238,0.2204 0.199789,0.31347 0.03055,0.0931 0.03055,0.25648 0.09166,0.38229 0.06111,0.12581 0.200172,0.27481 0.258425,0.40122 0.05825,0.12642 0.05825,0.27517 0.116222,0.40129 0.05797,0.12612 0.392757,0.48483 0.450727,0.61094 0.05797,0.12611 0.05797,0.27487 0.246861,0.44007 0.18889,0.16519 -0.11914,1.8e-4 0.03488,0.0984 0.154015,0.0982 0.154015,0.5952 0.22028,0.74107 0.06627,0.14588 0.187977,0.34149 0.249748,0.56876 0.06177,0.22728 0.06177,0.52481 0.09087,0.68398 0.0291,0.15918 0.09683,0.23175 0.159791,0.36667 0.06296,0.13492 0.12592,0.33729 0.157405,0.56546 0.03148,0.22818 0.03148,0.52979 0.06258,0.72341 0.03109,0.19361 0.09499,0.33054 0.126393,0.42988 0.0314,0.0993 0.0314,0.17728 0.220291,0.40984 0.188891,0.23255 -0.18889,-0.17222 0,0.0603 0.188891,0.23253 0.188891,0.31061 0.220291,0.40989 0.0314,0.0993 0.0953,0.23622 0.126397,0.3683 0.03109,0.13208 0.03109,0.27102 0.03109,0.54087 0,0.26984 0,0.67461 0,0.97819 0,0.30357 0,0.512 0.0311,0.6768 0.0311,0.1648 0.09499,0.30173 0.126396,0.40106 0.0314,0.0993 0.0314,0.17729 0.0925,0.27293 0.0611,0.0956 0.191486,0.23533 0.285115,0.3689 0.09363,0.13357 0.158382,0.27233 0.252008,0.40589 0.09363,0.13356 0.224017,0.27327 0.285119,0.36888 0.0611,0.0956 0.0611,0.17024 0.09259,0.27144 0.03149,0.10119 0.09535,0.23804 0.188971,0.3716 0.09362,0.13355 0.224007,0.27326 0.285111,0.39907 0.06111,0.12581 0.06111,0.28922 0.09165,0.38228 0.03054,0.0931 0.100095,0.16759 0.129221,0.25635 0.02913,0.0888 0.02913,0.79494 0.02913,1.29502 0,0.50008 0,1.30961 0.09094,1.90925 0.09094,0.59963 -0.09094,0.20989 0.0035,0.41807 0.09444,0.20818 0.09444,1.14169 -0.07981,1.26845 -0.174257,0.12675 0.05698,0.003 -0.102429,0.1039 -0.159415,0.10102 -0.231622,0.1784 -0.288962,0.20966 -0.05734,0.0313 -0.128826,0.0313 -0.253228,0.0648 -0.124402,0.0335 -0.315196,0.10165 -0.438462,0.16653 -0.123266,0.0649 -0.195424,0.14218 -0.252757,0.17345 -0.05733,0.0313 -0.126951,0.0313 -0.221396,0.0313 -0.09445,0 -0.226834,0 -0.313762,0.0291 -0.08693,0.0291 -0.158458,0.10577 -0.221427,0.17324"
       id="path826"
       inkscape:connector-curvature="0"
       inkscape:original-d="m 59.910449,79.076095 c 0.251853,0.06746 0.532952,0.05927 0.755561,0.202383 0.120727,0.07761 0.125928,0.269844 0.18889,0.404767 0.06297,0.134922 0.110795,0.279252 0.188892,0.404765 0.04939,0.07938 0.16073,0.111875 0.188888,0.202384 0.03982,0.127997 -0.03982,0.276767 0,0.404766 0.02816,0.09051 0.160733,0.111873 0.188892,0.202381 0.05666,0.182146 -0.05667,0.425005 0,0.60715 0.04451,0.143109 0.154743,0.258422 0.188888,0.404767 0.03054,0.130892 0,0.269844 0,0.404764 0,0.06747 -0.02816,0.142046 0,0.202385 0.113334,0.24286 0.453338,0.364288 0.566672,0.607151 0.02815,0.06033 -0.02815,0.142042 0,0.202379 0.288016,0.617181 0.149745,-0.370147 0.377779,0.60715 0.04581,0.196341 -0.05973,0.415151 0,0.60715 0.04452,0.143104 0.136603,0.264708 0.188892,0.404767 0.07396,0.198071 0.09985,0.41634 0.188888,0.607147 0.07964,0.170665 0.321466,0.223751 0.377781,0.404768 0.05973,0.191998 -0.05973,0.41515 0,0.607147 0.45607,1.465944 -0.05446,-0.319079 0.377782,0.607149 0.0281,0.0602 0,1.129164 0,1.214299 0,0.19575 0.02801,1.154274 0,1.214299 -0.03982,0.08534 -0.149072,0.117049 -0.188892,0.202382 -0.02815,0.06033 0,0.134921 0,0.202383 0,0.134922 0.03982,0.276768 0,0.404766 -0.125293,0.402732 -0.176299,0.09444 -0.37778,0.202384 -0.226667,0.121429 -0.340004,0.485719 -0.566671,0.607146 -0.05632,0.03016 -0.132574,-0.03016 -0.188888,0 -0.07965,0.04266 -0.109248,0.159721 -0.188891,0.202386 -0.05632,0.03017 -0.132575,-0.03016 -0.188892,0 -0.07815,0.04187 -0.513293,0.521365 -0.566668,0.607149 -0.0781,0.125512 -0.110796,0.279254 -0.188892,0.404766 -0.167551,0.269281 -0.578467,0.417405 -0.75556,0.60715 -0.737188,0.789845 0.04372,0.108687 -0.188891,0.607147 -0.03982,0.08533 -0.16073,0.111875 -0.188889,0.202385 -0.03982,0.127995 0,0.269844 0,0.404765 0,0.06745 0.02816,0.142045 0,0.202385 -0.154877,0.331879 -0.481567,0.202381 -0.755562,0.202381 -0.06297,0 -0.132573,-0.03016 -0.188889,0 -0.07964,0.04266 -0.160732,0.111874 -0.188891,0.202384 -0.02073,0.06664 -0.02073,1.350037 0,1.41668 0.02815,0.09051 0.149069,0.117049 0.188891,0.202383 0.05936,0.127203 -0.05936,0.68233 0,0.809533 0.188889,0.404767 0.37778,0.303572 0.566671,0.607148 0.636158,1.022401 0.0016,0.0047 0.188889,0.60715 0.04451,0.143106 0.154744,0.258421 0.188891,0.404765 0.03055,0.130893 -0.03054,0.273873 0,0.404765 0.07624,0.326732 0.185769,0.401423 0.37778,0.607146 0.06297,0.06747 0.149069,0.117058 0.18889,0.202388 0.05632,0.12067 -0.05631,0.28408 0,0.40476 0.07964,0.17067 0.321464,0.22376 0.377782,0.40476 0.03982,0.12801 -0.03982,0.27676 0,0.40478 0.05604,0.18013 0.510627,0.42702 0.566668,0.60715 0.03982,0.128 -0.03982,0.27676 0,0.40477 0.196529,0.63168 0.125927,-0.0675 0.37778,0.20238 0.02932,0.0314 -0.02449,0.52839 0,0.60714 -0.113849,0.3663 0.305993,0.37641 0.377783,0.60716 0.07964,0.256 -0.07965,0.55353 0,0.80952 0.02815,0.0904 0.125927,0.13493 0.188888,0.20239 0.06297,0.20238 0.140601,0.40018 0.188892,0.60715 0.05926,0.25395 -0.05926,0.55556 0,0.80953 0.03414,0.14635 0.144366,0.26166 0.188888,0.40477 0.01991,0.0641 -0.02815,0.14204 0,0.20238 0.335141,0.71817 0.04264,-0.31339 0.377781,0.40477 0.02816,0.0603 -0.01991,0.13838 0,0.20237 0.04451,0.14311 0.154743,0.25843 0.18889,0.40477 0.03055,0.1309 0,0.26984 0,0.40476 0,0.40477 0,0.80954 0,1.2143 0,0.20239 -0.04581,0.41082 0,0.60716 0.03415,0.14635 0.144369,0.26166 0.188892,0.40476 0.01991,0.0641 -0.02815,0.14205 0,0.20238 0.07964,0.17067 0.278993,0.246 0.37778,0.40478 0.0781,0.12552 0.110792,0.27924 0.188888,0.40476 0.09879,0.15876 0.29814,0.2341 0.377781,0.40476 0.02815,0.0603 0,0.13492 0,0.20238 0.06297,0.13493 0.110795,0.27926 0.188891,0.40476 0.09878,0.15878 0.298136,0.23411 0.37778,0.40478 0.05632,0.12068 -0.05632,0.28409 0,0.40477 0.03982,0.0853 0.160733,0.11188 0.188891,0.20238 0.03581,0.11512 0,0.82129 0,1.01192 0,0.80953 0,1.61906 0,2.42859 0,0.47462 -0.04452,-0.0954 0.188888,0.40476 0.0054,0.0116 0.03118,0.94511 0,1.01193 -0.208822,0.44747 -0.117231,0.0629 -0.377779,0.20237 -0.07964,0.0426 -0.109246,0.15973 -0.188889,0.2024 -0.05632,0.0302 -0.127807,-0.0165 -0.188891,0 -0.193162,0.0518 -0.388583,0.10698 -0.566672,0.20237 -0.07964,0.0427 -0.109245,0.15973 -0.188888,0.20239 -0.05631,0.0302 -0.125928,0 -0.188892,0 -0.125926,0 -0.258315,-0.0426 -0.37778,0 -0.08447,0.0302 -0.125926,0.13491 -0.18889,0.20238"
       inkscape:path-effect="#path-effect828"
       transform="translate(-22.322378,-43.030394)" />
    <path
       style="fill:#6cfc83;fill-opacity:1;stroke:#6cfc83;stroke-width:0.13363476;stroke-opacity:1"
       d="M 40.019871,75.631938 C 28.47963,68.518779 25.065851,53.395765 32.438543,42.046714 c 0.92811,-1.428673 1.538605,-2.183799 2.897952,-3.584498 1.595765,-1.644314 2.28827,-2.199066 2.61548,-2.095211 0.372692,0.118287 0.721889,0.864335 1.000898,2.138389 0.128767,0.587994 0.351499,1.234612 0.494958,1.436928 0.143463,0.202319 0.43202,0.863809 0.641244,1.469982 0.209222,0.606174 0.535761,1.545987 0.725639,2.088478 0.246642,0.704665 0.345233,1.258285 0.345233,1.938587 0,1.598268 -0.148449,1.893294 -1.350457,2.683888 -0.638021,0.419645 -2.075738,2.219193 -2.190527,2.741816 -0.06988,0.318164 -0.180171,0.431726 -0.476936,0.491077 -0.620426,0.124087 -0.70522,0.333079 -0.622832,1.5351 0.06158,0.898413 0.155951,1.239096 0.553427,1.997855 0.263551,0.503108 0.479187,0.985062 0.479187,1.07101 0,0.200718 1.107807,2.511316 1.516112,3.162212 0.171596,0.273548 0.415198,0.858174 0.541338,1.299168 0.12614,0.440994 0.316471,1.07242 0.422958,1.403165 0.106484,0.330747 0.193899,0.781764 0.194254,1.00226 2.65e-4,0.220498 0.159904,0.731652 0.354558,1.135896 0.286511,0.595019 0.36954,1.003829 0.435977,2.146649 0.07776,1.337564 0.106577,1.446279 0.549045,2.071338 0.256839,0.362823 0.656437,1.050563 0.887997,1.528308 0.408853,0.843528 0.423193,0.93482 0.496287,3.159633 0.05906,1.797682 0.03759,2.322274 -0.0997,2.436214 -0.13843,0.114887 -1.856544,0.818621 -1.998601,0.818621 -0.019,0 -0.393473,-0.221237 -0.832168,-0.491641 z"
       id="path835"
       inkscape:connector-curvature="0" />
    <path
       style="fill:#6cfc83;fill-opacity:1;stroke:#6cfc83;stroke-width:0.13363476;stroke-opacity:1"
       d="m 74.844649,48.122341 c -0.372303,-0.348247 -0.676915,-0.748202 -0.676915,-0.888793 0,-0.354285 -0.36,-1.034172 -0.800542,-1.511877 -0.20334,-0.220496 -0.625139,-0.780119 -0.937329,-1.243605 -0.312187,-0.463484 -1.0415,-1.260282 -1.620692,-1.770661 l -1.053081,-0.927959 -2.170716,-5.3e-4 c -1.855375,-5.29e-4 -2.228958,-0.03556 -2.571623,-0.241855 -0.220496,-0.132744 -0.881988,-0.347327 -1.46998,-0.476848 C 62.070648,40.73572 61.928736,40.663116 61.4556,39.991873 61.227037,39.667605 60.881743,39.32076 60.688282,39.221099 60.288637,39.01523 59.378544,38.345001 58.654523,37.723357 58.242,37.369167 58.148782,37.187385 58.064909,36.573583 c -0.05479,-0.400986 -0.220178,-0.892127 -0.367525,-1.091424 -0.207525,-0.280694 -0.292295,-0.688597 -0.376142,-1.809991 -0.05953,-0.7962 -0.149122,-1.582941 -0.199085,-1.748314 -0.112483,-0.372292 -0.05627,-0.373742 1.278466,-0.03295 1.755783,0.448289 3.324305,1.052034 5.07633,1.953945 4.59772,2.36682 8.197461,6.019446 10.532261,10.686997 0.664713,1.328843 1.690907,4.045085 1.572837,4.163155 -0.03327,0.03327 -0.365099,-0.22444 -0.737402,-0.572688 z"
       id="path837"
       inkscape:connector-curvature="0" />
    <path
       style="opacity:1;fill:none;fill-opacity:1;stroke:#060606;stroke-width:0.75326031;stroke-linecap:round;stroke-miterlimit:4;stroke-dasharray:none;stroke-opacity:0.94117647"
       id="path2220"
       sodipodi:type="arc"
       sodipodi:cx="30.720816"
       sodipodi:cy="67.956696"
       sodipodi:rx="26.397625"
       sodipodi:ry="13.13555"
       sodipodi:start="5.9341195"
       sodipodi:end="3.6651914"
       d="M 55.526469,63.464074 A 26.397625,13.13555 0 0 1 45.226547,78.931287 26.397625,13.13555 0 0 1 12.605666,77.511148 26.397625,13.13555 0 0 1 7.8598015,61.388921"
       sodipodi:open="true"
       transform="matrix(0.95474102,-0.29743836,0.33272222,0.94302488,0,0)" />
    <circle
       style="opacity:1;fill:#ff6f89;fill-opacity:1;stroke:#060606;stroke-width:0.52916664;stroke-miterlimit:4;stroke-dasharray:none;stroke-opacity:0.94117647"
       id="path2224"
       cx="62.328274"
       cy="64.922623"
       r="3.5907736" />
    <path
       style="opacity:1;fill:none;fill-opacity:1;stroke:#060606;stroke-width:0.75326031;stroke-linecap:round;stroke-miterlimit:4;stroke-dasharray:none;stroke-opacity:0.94117647"
       id="path2220-3"
       sodipodi:type="arc"
       sodipodi:cx="69.003777"
       sodipodi:cy="27.766209"
       sodipodi:rx="26.397625"
       sodipodi:ry="13.13555"
       sodipodi:start="5.9341195"
       sodipodi:end="3.6651914"
       d="M 93.80943,23.273587 A 26.397625,13.13555 0 0 1 83.509508,38.7408 26.397625,13.13555 0 0 1 50.888627,37.320661 26.397625,13.13555 0 0 1 46.142762,21.198434"
       sodipodi:open="true"
       transform="matrix(0.91129766,0.41174819,-0.37758908,0.92597326,0,0)" />
    <circle
       style="opacity:1;fill:#ff6f89;fill-opacity:1;stroke:#060606;stroke-width:0.52916664;stroke-miterlimit:4;stroke-dasharray:none;stroke-opacity:0.94117647"
       id="path2224-6"
       cx="28.310417"
       cy="44.322918"
       r="3.5907738" />
    <path
       style="fill:#000000;fill-opacity:1;stroke-width:0.02342291;stroke-linecap:round;stroke-miterlimit:4;stroke-dasharray:none"
       d="m 73.184263,46.372249 c -0.189283,-0.03227 -0.44001,-0.235249 -0.440266,-0.356431 -8e-5,-0.0383 0.02899,-0.04101 0.376465,-0.03508 l 0.376549,0.0064 0.07172,0.09905 c 0.07095,0.09799 0.07124,0.09958 0.02712,0.148328 -0.08649,0.09557 -0.279646,0.160197 -0.411586,0.137705 z"
       id="path4553"
       inkscape:connector-curvature="0" />
    <g
       id="g4561"
       transform="translate(0.52916667)">
      <path
         transform="matrix(0.26458333,0,0,0.26458333,-0.9264878,15.107204)"
         inkscape:connector-curvature="0"
         id="path4557"
         d="m 278.25505,118.25161 c -0.25939,-0.0174 -0.55297,-0.11448 -0.75434,-0.24931 -0.0265,-0.0178 -0.0505,-0.0316 -0.0532,-0.0308 -0.003,7.8e-4 -0.1636,-0.10547 -0.35743,-0.23612 -0.38093,-0.25676 -0.39591,-0.2685 -0.4717,-0.36971 -0.13843,-0.18485 -0.20874,-0.39841 -0.2243,-0.68129 l -0.004,-0.0677 1.42434,10e-4 1.42434,0.001 0.0544,0.0691 c 0.0847,0.10746 0.29188,0.38388 0.37478,0.49995 0.0669,0.0937 0.19532,0.27734 0.20513,0.2934 0.008,0.0135 -0.0937,0.14397 -0.1888,0.24164 -0.0714,0.0734 -0.22295,0.1943 -0.32115,0.25631 -0.3253,0.20538 -0.70641,0.29885 -1.10834,0.27182 z m 0.27994,-0.0795 c 0.35667,-0.0489 0.69798,-0.18228 0.9602,-0.3752 0.10153,-0.0747 0.25066,-0.23358 0.27035,-0.28802 0.023,-0.0637 0.005,-0.11777 -0.0816,-0.24695 -0.0321,-0.0478 -0.38344,-0.53716 -0.39526,-0.55057 -0.004,-0.004 -1.49034,-0.0285 -1.94688,-0.0319 -0.85761,-0.006 -0.92243,0.007 -0.90113,0.17976 0.0117,0.0949 0.0523,0.19221 0.12782,0.30573 0.23076,0.34704 0.73025,0.72527 1.1983,0.90737 0.15333,0.0597 0.2773,0.0912 0.43127,0.10987 0.0429,0.005 0.27649,-0.002 0.33698,-0.0101 z"
         style="fill:#000000;fill-opacity:1;stroke-width:0.00553297;stroke-linecap:round;stroke-miterlimit:4;stroke-dasharray:none" />
    </g>
  </g>
</svg>
