<?xml version="1.0" encoding="UTF-8" standalone="no"?>
<!-- Created with Inkscape (http://www.inkscape.org/) -->

<svg
   xmlns:dc="http://purl.org/dc/elements/1.1/"
   xmlns:cc="http://creativecommons.org/ns#"
   xmlns:rdf="http://www.w3.org/1999/02/22-rdf-syntax-ns#"
   xmlns:svg="http://www.w3.org/2000/svg"
   xmlns="http://www.w3.org/2000/svg"
   xmlns:sodipodi="http://sodipodi.sourceforge.net/DTD/sodipodi-0.dtd"
   xmlns:inkscape="http://www.inkscape.org/namespaces/inkscape"
   id="svg2"
   version="1.1"
   inkscape:version="0.91 r13725"
   xml:space="preserve"
   width="450"
   height="157.5"
   viewBox="0 0 450 157.5"
   sodipodi:docname="viterbi.svg"><metadata
     id="metadata8"><rdf:RDF><cc:Work
         rdf:about=""><dc:format>image/svg+xml</dc:format><dc:type
           rdf:resource="http://purl.org/dc/dcmitype/StillImage" /></cc:Work></rdf:RDF></metadata><defs
     id="defs6" /><sodipodi:namedview
     pagecolor="#ffffff"
     bordercolor="#666666"
     borderopacity="1"
     objecttolerance="10"
     gridtolerance="10"
     guidetolerance="10"
     inkscape:pageopacity="0"
     inkscape:pageshadow="2"
     inkscape:window-width="1920"
     inkscape:window-height="1031"
     id="namedview4"
     showgrid="false"
     inkscape:zoom="2.3695934"
     inkscape:cx="355.10818"
     inkscape:cy="-0.17529784"
     inkscape:window-x="0"
     inkscape:window-y="0"
     inkscape:window-maximized="1"
     inkscape:current-layer="g10" /><g
     id="g10"
     inkscape:groupmode="layer"
     inkscape:label="ink_ext_XXXXXX"
     transform="matrix(1.25,0,0,-1.25,0,157.5)"><path
       inkscape:connector-curvature="0"
       id="path16"
       style="fill:#ffcc00;fill-opacity:1;fill-rule:nonzero;stroke:none"
       d="m 148.559,100.527 c 0,0.296 0.055,0.413 0.411,0.413 0.585,0 2.523,-0.179 7.108,-0.177 4.93,0 7.571,0.177 8.099,0.177 0.525,0 0.588,-0.177 0.588,-0.413 l 0,-1.3493 c 0,-0.2929 -0.063,-0.5285 -0.469,-0.5285 l -2.82,0 c -1.64,0 -2.466,-0.5308 -2.465,-1.5269 0,-0.4692 0.059,-1.1743 0.234,-1.9993 0.356,-2.1125 2.526,-9.0996 3.586,-12.3917 0.699,-2.2286 4.113,-12.3293 5.46,-15.9114 l 0.119,0 c 1.231,2.7578 5.815,14.8571 6.283,16.2082 0.588,1.5844 2.816,8.3403 3.698,10.9239 0.469,1.4652 0.825,2.5246 0.825,3.346 -0.004,0.7071 -0.415,1.3524 -1.879,1.3524 l -1.531,0 c -0.235,0 -0.294,0.1758 -0.294,0.5281 l 0,1.3495 c 0,0.295 0.059,0.415 0.353,0.415 0.531,0 3.229,-0.179 6.932,-0.179 4.283,0 5.754,0.179 6.28,0.179 0.355,0 0.412,-0.118 0.412,-0.415 l 0,-1.4675 c 0,-0.2312 -0.057,-0.4101 -0.412,-0.4101 l -1.581,0 c -1.941,0 -3.055,-0.9387 -4.17,-2.291 -1.525,-1.8809 -6.227,-13.9168 -7.223,-16.386 -0.707,-1.9375 -8.281,-20.6101 -8.578,-21.2 -0.23,-0.4687 -0.524,-0.7636 -0.82,-0.7636 -0.468,0 -0.703,0.5879 -0.999,1.3496 -1.875,5.4039 -6.636,18.7922 -7.399,20.9094 l -0.584,1.9941 c -1.41,4.1707 -4.172,12.6836 -4.935,14.448 -0.592,1.3528 -1.179,1.9344 -2.412,1.9344 l -1.524,0 c -0.238,0 -0.293,0.1801 -0.293,0.4145 l 0,1.4672" /><path
       inkscape:connector-curvature="0"
       id="path18"
       style="fill:#ffcc00;fill-opacity:1;fill-rule:nonzero;stroke:none"
       d="m 185.393,76.2742 c 0,1.9985 -0.352,3.0528 -3.286,3.5258 -0.417,0.0586 -0.531,0.1766 -0.531,0.4109 l 0,0.5274 c 0,0.1765 0.114,0.2922 0.412,0.4148 1.878,0.7032 4.111,1.643 6.342,2.8735 0.469,0.2339 0.766,0.3511 1.115,0.3511 0.291,0 0.354,-0.2925 0.291,-0.7027 -0.115,-0.9973 -0.115,-4.6977 -0.11,-9.5738 l 0,-6.4004 c 0,-2.2891 0,-4.4043 0.054,-5.0508 0.119,-1.1109 0.295,-1.527 0.94,-1.527 l 2.701,0 c 0.469,0 0.589,-0.1757 0.589,-0.5253 l 0,-0.9981 c 0,-0.4101 -0.12,-0.5879 -0.526,-0.5879 -0.468,0 -3.175,0.1778 -5.638,0.1778 -3.411,-0.002 -5.698,-0.1817 -6.345,-0.1817 -0.294,0 -0.469,0.1231 -0.469,0.4727 l 0,1.1718 c 0,0.3555 0.175,0.4707 0.588,0.4707 l 2.876,0 c 0.645,0 0.883,0.2364 0.943,1.1754 0.057,1.7598 0.057,3.5821 0.057,5.3438 l -0.003,8.632" /><path
       inkscape:connector-curvature="0"
       id="path20"
       style="fill:#ffcc00;fill-opacity:1;fill-rule:nonzero;stroke:none"
       d="m 184.082,90.002 c 0,1.4707 1.237,3.0539 3.584,3.0539 2.055,0.0015 3.054,-1.5825 3.054,-2.8782 0,-1.5234 -1.056,-3.2285 -3.405,-3.2285 -1.294,0 -3.233,1.1731 -3.233,3.0528" /><path
       inkscape:connector-curvature="0"
       id="path22"
       style="fill:#ffcc00;fill-opacity:1;fill-rule:nonzero;stroke:none"
       d="m 284.442,76.2742 c 0,1.9985 -0.352,3.0528 -3.291,3.5258 -0.408,0.0586 -0.526,0.1766 -0.526,0.4109 l 0,0.5274 c 0,0.1765 0.118,0.2922 0.416,0.4148 1.875,0.7032 4.105,1.643 6.338,2.8735 0.469,0.2339 0.766,0.3511 1.116,0.3511 0.294,0 0.357,-0.2925 0.294,-0.7027 -0.119,-0.9973 -0.119,-4.6977 -0.115,-9.5738 l 0,-6.4004 c 0,-2.2891 0,-4.4043 0.056,-5.0508 0.122,-1.1109 0.293,-1.527 0.942,-1.527 l 2.702,0 c 0.47,0 0.585,-0.1757 0.585,-0.5253 l 0,-0.9981 c 0,-0.4101 -0.115,-0.5879 -0.526,-0.5879 -0.47,0 -3.175,0.1778 -5.639,0.1778 -3.407,-0.002 -5.696,-0.1817 -6.344,-0.1817 -0.294,0 -0.471,0.1231 -0.471,0.4727 l 0,1.1718 c 0,0.3555 0.177,0.4707 0.593,0.4707 l 2.874,0 c 0.644,0 0.876,0.2364 0.941,1.1754 0.057,1.7598 0.057,3.5821 0.057,5.3438 l -0.002,8.632" /><path
       inkscape:connector-curvature="0"
       id="path24"
       style="fill:#ffcc00;fill-opacity:1;fill-rule:nonzero;stroke:none"
       d="m 283.134,90.002 c 0,1.4707 1.233,3.0539 3.582,3.0539 2.054,0.0015 3.055,-1.5825 3.055,-2.8782 0,-1.5234 -1.056,-3.2285 -3.406,-3.2285 -1.293,0 -3.231,1.1731 -3.231,3.0528" /><path
       inkscape:connector-curvature="0"
       id="path26"
       style="fill:#ffcc00;fill-opacity:1;fill-rule:nonzero;stroke:none"
       d="m 202.658,66.527 c 0,-4.4043 1.993,-5.1696 3.055,-5.1696 1.353,0 3.055,0.2364 3.873,0.7672 0.296,0.1738 0.53,0.1152 0.706,-0.1191 l 0.296,-0.525 c 0.173,-0.2344 0.058,-0.4707 -0.123,-0.6485 -0.583,-0.5879 -2.993,-2.3515 -6.516,-2.3515 -2.879,0 -5.697,2.7636 -5.697,4.9918 0,2.4101 0.181,7.58 0.181,8.4004 l 0,1.291 c 0,1.0586 0.052,4.9918 0.115,7.4586 l -3.585,0 c -0.528,0 -0.881,0.234 -0.881,0.707 0,0.4687 0.353,0.6441 1.056,1.0547 1.412,0.8211 5.932,5.4019 6.698,7.4004 0.172,0.4683 0.469,0.5855 0.822,0.5855 0.469,0 0.588,-0.4121 0.588,-0.8804 l -0.298,-5.8145 8.167,0 c 0.349,0 0.528,-0.2934 0.407,-0.5285 l -0.583,-2.052 c -0.063,-0.2976 -0.178,-0.4683 -0.531,-0.4683 l -7.572,-0.0039 c -0.121,-2.7012 -0.178,-5.5192 -0.178,-8.2223 l 0,-5.873" /><path
       inkscape:connector-curvature="0"
       id="path28"
       style="fill:#ffcc00;fill-opacity:1;fill-rule:nonzero;stroke:none"
       d="m 217.043,74.8082 c -0.119,-0.5254 -0.178,-1.4687 -0.178,-2.8184 0,-5.7558 3.645,-10.0972 8.343,-10.0972 3.581,0 6.105,2.0543 7.105,3.9918 0.117,0.2344 0.351,0.3515 0.529,0.2929 l 0.76,-0.4121 c 0.183,-0.0566 0.295,-0.2343 0,-0.8789 -1.055,-2.3515 -4.11,-6.4019 -9.335,-6.4019 -3.349,0 -7.046,0.9961 -9.223,4.1715 -2.054,2.9921 -2.581,5.164 -2.581,9.2754 0,2.291 0.586,6.2242 3.695,9.339 2.526,2.5805 5.464,3.1125 8.401,3.1125 6.754,0.0012 8.632,-6.343 8.632,-8.634 0,-0.8215 -0.703,-0.9386 -1.644,-0.9386 l -14.504,-0.002 z m 9.337,1.7633 c 1.115,0 1.582,0.293 1.582,0.8203 0,1.3543 -0.701,5.2273 -4.52,5.2273 -2.583,0 -5.046,-1.705 -6.166,-6.05 l 9.104,0.0024" /><path
       inkscape:connector-curvature="0"
       id="path30"
       style="fill:#ffcc00;fill-opacity:1;fill-rule:nonzero;stroke:none"
       d="m 239.824,74.8102 c 0,2.9957 -0.47,3.5836 -2.112,4.4632 l -1.118,0.586 c -0.35,0.1179 -0.47,0.1765 -0.47,0.4148 l 0,0.352 c 0,0.2343 0.12,0.3472 0.47,0.5269 l 5.814,2.9946 c 0.352,0.1765 0.586,0.2363 0.821,0.2363 0.354,0 0.412,-0.3527 0.412,-0.7055 l 0.291,-4.0535 0.238,0 c 1.76,2.702 4.522,5.1105 7.049,5.1105 1.996,0 2.991,-1.2304 2.991,-2.5839 0,-1.7012 -1.409,-2.8774 -2.467,-2.8774 -0.64,0 -1.227,0.2348 -1.7,0.4692 -0.469,0.2925 -1.176,0.4683 -1.939,0.4683 -0.94,0 -2.465,-0.5867 -3.465,-2.4668 -0.35,-0.6402 -0.587,-1.7027 -0.584,-1.8789 l 0,-12.3312 c 0,-1.818 0.412,-2.4059 1.643,-2.4059 l 2.761,0 c 0.354,0 0.412,-0.1777 0.412,-0.5293 l 0,-1.0586 c 0,-0.3515 -0.058,-0.5293 -0.293,-0.5293 -0.354,0 -3.055,0.1778 -6.228,0.1778 -3.638,0 -6.106,-0.1778 -6.459,-0.1778 -0.235,0 -0.35,0.1192 -0.35,0.5899 l 0,0.998 c 0,0.4121 0.115,0.5293 0.647,0.5293 l 2.285,0 c 0.882,0 1.295,0.3516 1.295,1.1129 0.056,1.9395 0.056,3.9941 0.056,7.0488 l 0,5.5196" /><path
       inkscape:connector-curvature="0"
       id="path32"
       style="fill:#ffcc00;fill-opacity:1;fill-rule:nonzero;stroke:none"
       d="m 256.617,90.8445 c 0,3.9336 -0.647,4.7578 -2.762,5.4621 l -0.585,0.1758 c -0.646,0.177 -0.761,0.293 -0.761,0.4696 l 0,0.4691 c 0,0.1773 0.115,0.293 0.469,0.4684 1.701,0.766 4.756,2.2915 6.225,3.2305 0.41,0.297 0.879,0.532 1.229,0.532 0.41,0 0.529,-0.297 0.471,-1.003 -0.061,-0.468 -0.057,-7.1615 -0.057,-12.3885 l 0,-6.814 c 1.879,1.8223 5.225,2.9375 8.103,2.9375 5.168,0.0015 10.75,-4.1684 10.75,-12.5641 0,-6.873 -5.519,-13.3316 -12.219,-13.3316 -3.284,0 -5.579,0.7031 -6.925,1.5254 l -2.352,-1.293 c -0.23,-0.1777 -0.41,-0.2344 -0.765,-0.1777 l -0.704,0.1777 c -0.23,0.0566 -0.296,0.1758 -0.23,0.4707 0.116,0.8223 0.116,5.6949 0.116,9.9801 l -0.003,21.673 z m 4.231,-19.0265 c 0,-4.877 0.178,-6.6367 0.881,-8.5157 0.585,-1.4097 3.055,-2.9351 5.577,-2.9351 3.524,0 7.871,2.4039 7.871,10.0992 0,5.6969 -2.997,11.0981 -8.748,11.0981 -2.18,0 -4.293,-0.7618 -5.583,-2.1153 l 0.002,-7.6312" /><path
       inkscape:connector-curvature="0"
       id="path34"
       style="fill:#ffcc00;fill-opacity:1;fill-rule:nonzero;stroke:none"
       d="m 40.3691,95.9324 c 0,2.0219 -0.4765,2.9707 -2.0222,2.9707 l -2.7356,0 c -0.3574,0 -0.4758,0.1223 -0.4758,0.5383 l 0,1.3696 c 0,0.353 0.1184,0.471 0.5911,0.471 0.5988,0 3.4492,-0.177 9.1574,-0.177 4.991,0 7.8484,0.177 8.5613,0.177 0.3555,0 0.4746,-0.118 0.4746,-0.412 l 0,-1.4884 c 0,-0.3562 -0.1191,-0.4785 -0.4746,-0.4785 l -2.4961,0 c -1.7859,0 -2.8535,-1.064 -2.916,-2.314 -0.0566,-0.7129 -0.1758,-4.2817 -0.1758,-7.7297 l 0,-7.3719 c 0,-2.9707 0.0559,-7.193 0.1758,-9.0934 0.1816,-2.7343 0.6555,-5.4687 2.0801,-7.3691 2.0215,-2.7324 5.2305,-3.6852 8.0847,-3.6852 2.7375,0 6.0657,1.0661 7.9661,2.8512 2.2597,2.2578 3.4504,5.707 3.4504,10.0488 l 0,10.6997 c 0,4.7507 -0.4758,9.9835 -0.6555,11.3527 -0.1797,1.5469 -1.1309,2.6109 -2.4387,2.6109 l -2.1375,0 c -0.3574,0 -0.4765,0.1821 -0.4765,0.4211 l 0,1.4868 c 0,0.353 0.1191,0.471 0.4765,0.471 0.5945,0 3.3274,-0.177 7.2527,-0.177 3.6836,0 5.5852,0.177 6.061,0.177 0.5348,0 0.5965,-0.177 0.5965,-0.471 l 0,-1.3696 c 0,-0.3562 -0.0617,-0.5383 -0.3582,-0.5383 l -2.1387,0 c -2.1379,0 -2.3813,-1.6597 -2.4981,-2.314 -0.1164,-0.7129 -0.1164,-9.0371 -0.1164,-9.8098 0,-0.8313 -0.1191,-11.1742 -0.3586,-13.5512 C 72.4668,68.3512 71.0391,64.6656 67.8281,61.8145 65.3313,59.5566 61.532,58.127 57.0098,58.127 c -2.8535,0 -6.2989,0.4765 -8.5586,1.4296 -3.4461,1.4258 -5.8235,4.1598 -7.0164,7.9664 -0.8325,2.6114 -1.0657,6.5352 -1.0657,14.3239 l 0,14.0855" /><path
       inkscape:connector-curvature="0"
       id="path36"
       style="fill:#ffcc00;fill-opacity:1;fill-rule:nonzero;stroke:none"
       d="m 79.9602,72.277 c 0.2351,0 0.3535,-0.1211 0.3535,-0.4766 0.1199,-1.9024 0.5957,-4.1621 2.2605,-6.7774 1.7813,-2.8535 4.8738,-4.2769 7.8477,-4.2769 3.2097,0 7.7285,2.0191 7.7285,6.9547 0,5.4687 -2.4981,7.25 -8.7988,9.6262 -1.9036,0.7152 -5.8262,2.3793 -8.6817,4.9933 -2.0195,1.9031 -2.9687,4.875 -2.9687,8.5027 0,3.3286 1.3066,6.0625 4.1593,8.3208 2.3797,2.0212 4.993,2.8552 8.4415,2.8552 3.9226,0 6.2996,-0.953 7.4878,-1.428 0.5981,-0.238 0.9504,-0.121 1.2493,0.178 l 0.7746,0.774 c 0.2383,0.238 0.4743,0.355 0.8293,0.355 0.359,0 0.477,-0.355 0.477,-0.953 0,-0.9492 0.951,-9.2719 0.951,-9.8637 0,-0.2383 -0.119,-0.357 -0.356,-0.4195 l -0.953,-0.2941 c -0.236,-0.0594 -0.474,0 -0.591,0.3566 -0.5948,1.6641 -1.546,4.0391 -3.6886,6.3008 -1.5437,1.6629 -3.4472,2.4961 -6.1804,2.4961 -4.7559,0 -6.6575,-3.8047 -6.6575,-6.0063 0,-2.0215 0.2371,-3.8023 1.6641,-5.3472 1.5449,-1.5454 4.8762,-2.9727 7.2512,-3.6875 3.448,-1.0664 6.3035,-2.2582 8.5602,-4.6372 1.903,-2.0195 2.974,-4.5148 2.974,-8.4972 0,-7.252 -4.7561,-13.1969 -12.6038,-13.1969 -4.875,0 -7.7257,1.0684 -10.1047,2.8555 -0.7156,0.4746 -1.0718,0.7109 -1.4253,0.7109 -0.3586,0 -0.5957,-0.4746 -0.9524,-1.0703 -0.3574,-0.5937 -0.5957,-0.7148 -1.0691,-0.7148 -0.4758,0 -0.7153,0.3613 -0.7153,0.9531 0.1196,0.7129 0.9524,10.3433 1.0676,11.0562 0.0586,0.3575 0.1211,0.4766 0.3594,0.4766 l 1.3098,-0.1191" /><path
       inkscape:connector-curvature="0"
       id="path38"
       style="fill:#ffcc00;fill-opacity:1;fill-rule:nonzero;stroke:none"
       d="m 144.753,68.7086 c 0.178,-0.1758 0.236,-0.3555 0.119,-0.5918 -3.567,-5.1152 -9.274,-9.9879 -17.715,-9.9879 -7.606,0 -11.889,2.2598 -15.571,5.5875 -4.403,3.9258 -6.424,10.8184 -6.424,16.0504 0,5.8238 1.902,11.4129 6.065,15.9297 3.21,3.4473 8.324,6.3005 15.452,6.3005 5.47,0 9.87,-1.664 12.009,-2.8532 0.835,-0.4758 1.073,-0.4758 1.189,0 l 0.476,1.5452 c 0.12,0.357 0.237,0.357 0.952,0.357 0.714,0 0.831,-0.117 0.831,-0.951 0,-1.0696 1.19,-10.5805 1.427,-12.3637 0.056,-0.3575 0,-0.5348 -0.237,-0.5946 l -1.128,-0.3562 c -0.3,-0.1196 -0.477,0.1172 -0.654,0.5933 -0.715,2.1407 -2.144,5.1125 -4.639,7.727 -2.614,2.4976 -5.708,4.3992 -10.341,4.3992 -9.511,0 -13.437,-8.5598 -13.437,-17.1199 0,-3.686 1.071,-10.6988 5.473,-15.4547 3.921,-4.1602 7.369,-4.6367 10.223,-4.6367 6.538,0 11.709,3.2715 14.207,6.8945 0.296,0.418 0.533,0.5957 0.712,0.418 l 1.011,-0.8926" /><path
       inkscape:connector-curvature="0"
       id="path40"
       style="fill:#ffcc00;fill-opacity:1;fill-rule:nonzero;stroke:none"
       d="m 156.303,29.9316 c -0.227,0.1707 -0.342,0.2278 -0.436,0.2278 -0.115,0 -0.191,-0.1328 -0.304,-0.3227 -0.114,-0.209 -0.209,-0.2281 -0.342,-0.2281 -0.115,0 -0.209,0.0957 -0.172,0.3047 0.076,0.4746 0.266,2.8863 0.324,3.4375 0.018,0.114 0.057,0.114 0.132,0.114 l 0.286,-0.0183 c 0.076,0 0.114,-0.0395 0.114,-0.1527 0.018,-0.6075 0.056,-1.234 0.683,-2.2032 0.571,-0.8933 1.616,-1.4058 2.661,-1.4058 1.138,0 2.583,0.7031 2.583,2.4121 0,1.9566 -1.406,2.6797 -2.925,3.2105 -0.59,0.2094 -1.957,0.6836 -2.775,1.5395 -0.627,0.6265 -0.95,1.5191 -0.95,2.773 0,0.9492 0.59,1.8813 1.178,2.4321 0.684,0.646 1.635,0.9121 2.66,0.9121 1.083,0 1.919,-0.3235 2.242,-0.4746 0.17,-0.0957 0.266,-0.0762 0.361,0.0171 l 0.247,0.2289 c 0.095,0.0758 0.152,0.1141 0.247,0.1141 0.094,0 0.151,-0.1516 0.151,-0.323 0,-0.6645 0.248,-2.6028 0.267,-3.0207 0,-0.095 -0.019,-0.1329 -0.095,-0.1512 l -0.229,-0.0578 c -0.056,-0.0188 -0.094,0 -0.113,0.0578 -0.152,0.5508 -0.399,1.2906 -1.178,2.1082 -0.513,0.5508 -1.177,0.8176 -2.071,0.8176 -1.69,0 -2.299,-1.2539 -2.299,-2.2231 0,-0.5332 0.115,-1.1597 0.589,-1.6531 0.551,-0.552 1.615,-0.9688 2.166,-1.1398 1.311,-0.4176 2.375,-0.7411 3.059,-1.577 0.494,-0.5891 0.836,-1.3289 0.836,-2.5828 0,-2.2426 -1.368,-4.1613 -3.875,-4.1613 -1.33,0 -2.262,0.3996 -3.022,0.9882" /><path
       inkscape:connector-curvature="0"
       id="path42"
       style="fill:#ffcc00;fill-opacity:1;fill-rule:nonzero;stroke:none"
       d="m 165.748,33.8254 c 0,-1.0258 0.456,-2.1836 0.968,-2.8867 0.627,-0.8164 1.426,-0.9692 2.072,-0.9692 0.95,0 1.444,0.209 2.088,0.8164 0.04,0.0383 0.096,0.0571 0.153,0 l 0.19,-0.189 c 0.075,-0.0766 0.095,-0.1328 0,-0.2485 -0.552,-0.6257 -1.766,-1.3472 -3.058,-1.3472 -1.007,0 -2.072,0.2273 -2.945,1.3301 -0.703,0.9292 -0.855,1.7285 -0.855,2.5828 0,2.2226 1.558,4.4636 4.065,4.4636 1.976,0 2.584,-1.1394 2.584,-1.5386 -0.018,-0.436 -0.303,-0.6645 -0.703,-0.6645 -0.436,0 -0.76,0.2465 -1.045,0.7602 -0.418,0.7793 -0.817,0.8355 -1.272,0.8355 -1.083,0 -2.242,-0.9883 -2.242,-2.9449" /><path
       inkscape:connector-curvature="0"
       id="path44"
       style="fill:#ffcc00;fill-opacity:1;fill-rule:nonzero;stroke:none"
       d="m 173.238,39.582 c 0,1.159 -0.228,1.3684 -0.912,1.5957 l -0.323,0.1145 c -0.114,0.0371 -0.132,0.0562 -0.132,0.1133 l 0,0.1715 c 0,0.0761 0.056,0.0949 0.227,0.1898 l 1.976,1.0445 c 0.152,0.0766 0.285,0.1528 0.437,0.1528 0.114,0 0.19,-0.1528 0.153,-0.4746 -0.039,-0.3247 -0.058,-4.1797 -0.058,-5.1301 l 0,-1.2156 0.095,0 c 0.665,0.7976 1.767,1.2339 2.603,1.2339 0.797,0 1.348,-0.2461 1.88,-0.7593 0.855,-0.7981 0.817,-1.7668 0.817,-2.793 l 0,-1.082 c 0,-1.0649 0.038,-2.2422 0.038,-2.6028 0,-0.2273 0.304,-0.2851 0.703,-0.2851 l 0.322,0 c 0.153,0 0.209,-0.0379 0.209,-0.1707 l 0,-0.2856 c 0,-0.1519 -0.037,-0.2281 -0.15,-0.2281 -0.133,0 -0.742,0.0574 -1.825,0.0574 -0.93,0 -1.615,-0.0574 -1.785,-0.0574 -0.134,0 -0.172,0.0574 -0.172,0.209 l 0,0.3242 c 0,0.0937 0.02,0.1512 0.133,0.1512 l 0.438,0 c 0.322,0 0.703,0.0383 0.721,0.3601 0.019,0.2668 0,1.2739 0,1.8813 l 0,1.5386 c 0,1.0649 -0.075,1.8247 -0.627,2.3372 -0.38,0.3601 -0.778,0.5324 -1.254,0.5324 -0.55,0 -1.234,-0.1906 -1.766,-0.7988 -0.171,-0.209 -0.38,-0.5879 -0.38,-0.9297 l 0,-4.1426 c 0,-0.6074 0.058,-0.7785 0.418,-0.7785 l 0.569,0 c 0.134,0 0.209,-0.0379 0.209,-0.1512 l 0,-0.3242 c 0,-0.1328 -0.037,-0.209 -0.151,-0.209 -0.151,0 -0.931,0.0574 -1.805,0.0574 -0.95,0 -1.672,-0.0574 -1.843,-0.0574 -0.076,0 -0.132,0.0574 -0.132,0.1902 l 0,0.343 c 0,0.1324 0.076,0.1512 0.285,0.1512 l 0.398,0 c 0.305,0 0.589,0.0761 0.627,0.3039 0.057,0.3609 0.057,2.4511 0.057,3.6851 l 0,5.7375" /><path
       inkscape:connector-curvature="0"
       id="path46"
       style="fill:#ffcc00;fill-opacity:1;fill-rule:nonzero;stroke:none"
       d="m 188.816,33.3699 c 0,2.1086 -1.537,3.4387 -2.505,3.4387 -0.514,0 -1.008,-0.1145 -1.463,-0.6082 -0.743,-0.7602 -1.008,-1.5395 -1.008,-2.9824 0,-1.0637 0.113,-1.7856 0.723,-2.6606 0.435,-0.6258 0.988,-0.9871 1.88,-0.9871 1.444,0 2.373,1.7664 2.373,3.7996 z m -5.488,-3.0586 c -0.875,1.045 -1.045,1.7485 -1.045,3.0957 0,0.97 0.512,2.186 1.633,3.0586 0.988,0.761 1.918,0.9121 2.545,0.9121 1.045,0 2.09,-0.5308 2.66,-1.1011 0.856,-0.8735 1.293,-1.8618 1.293,-3.0969 0,-2.0703 -1.863,-4.1785 -4.199,-4.1785 -0.912,0 -2.09,0.3601 -2.887,1.3101" /><path
       inkscape:connector-curvature="0"
       id="path48"
       style="fill:#ffcc00;fill-opacity:1;fill-rule:nonzero;stroke:none"
       d="m 198.279,33.3699 c 0,2.1086 -1.539,3.4387 -2.508,3.4387 -0.513,0 -1.007,-0.1145 -1.462,-0.6082 -0.741,-0.7602 -1.008,-1.5395 -1.008,-2.9824 0,-1.0637 0.115,-1.7856 0.722,-2.6606 0.438,-0.6258 0.989,-0.9871 1.881,-0.9871 1.444,0 2.375,1.7664 2.375,3.7996 z m -5.49,-3.0586 c -0.875,1.045 -1.045,1.7485 -1.045,3.0957 0,0.97 0.512,2.186 1.633,3.0586 0.988,0.761 1.92,0.9121 2.547,0.9121 1.045,0 2.09,-0.5308 2.658,-1.1011 0.856,-0.8735 1.293,-1.8618 1.293,-3.0969 0,-2.0703 -1.861,-4.1785 -4.199,-4.1785 -0.912,0 -2.09,0.3601 -2.887,1.3101" /><path
       inkscape:connector-curvature="0"
       id="path50"
       style="fill:#ffcc00;fill-opacity:1;fill-rule:nonzero;stroke:none"
       d="m 203.732,34.8895 c 0,-0.9879 0,-3.8563 0.02,-4.4454 0.018,-0.3218 0.094,-0.5886 0.494,-0.5886 l 0.854,0 c 0.171,0 0.209,-0.0575 0.209,-0.1707 l 0,-0.3235 c 0,-0.114 -0.038,-0.1902 -0.114,-0.1902 -0.132,0 -0.968,0.0574 -2.146,0.0574 -1.217,0 -1.977,-0.0574 -2.147,-0.0574 -0.095,0 -0.132,0.0762 -0.132,0.1902 l 0,0.3235 c 0,0.1328 0.037,0.1707 0.246,0.1707 l 0.912,0 c 0.209,0 0.398,0.1328 0.418,0.4758 0.019,0.5875 0.019,3.855 0.019,4.957 l 0,1.1972 c 0,1.3497 -0.019,3.0782 -0.058,3.5719 -0.037,0.6446 -0.342,0.9492 -0.95,1.1391 l -0.378,0.1328 c -0.096,0.0391 -0.116,0.0574 -0.116,0.0953 l 0,0.1524 c 0,0.057 0.057,0.0949 0.172,0.1332 0.664,0.3035 1.52,0.6453 2.223,1.1011 0.17,0.1133 0.285,0.1528 0.398,0.1528 0.133,0 0.172,-0.0957 0.153,-0.3418 -0.02,-1.0453 -0.077,-4.9961 -0.077,-6.041 l 0,-1.6918" /><path
       inkscape:connector-curvature="0"
       id="path52"
       style="fill:#ffcc00;fill-opacity:1;fill-rule:nonzero;stroke:none"
       d="m 216.67,33.3699 c 0,2.1086 -1.537,3.4387 -2.506,3.4387 -0.514,0 -1.008,-0.1145 -1.463,-0.6082 -0.742,-0.7602 -1.008,-1.5395 -1.008,-2.9824 0,-1.0637 0.114,-1.7856 0.723,-2.6606 0.436,-0.6258 0.988,-0.9871 1.881,-0.9871 1.443,0 2.373,1.7664 2.373,3.7996 z m -5.488,-3.0586 c -0.875,1.045 -1.045,1.7485 -1.045,3.0957 0,0.97 0.511,2.186 1.633,3.0586 0.988,0.761 1.918,0.9121 2.544,0.9121 1.045,0 2.09,-0.5308 2.661,-1.1011 0.855,-0.8735 1.293,-1.8618 1.293,-3.0969 0,-2.0703 -1.864,-4.1785 -4.2,-4.1785 -0.912,0 -2.089,0.3601 -2.886,1.3101" /><path
       inkscape:connector-curvature="0"
       id="path54"
       style="fill:#ffcc00;fill-opacity:1;fill-rule:nonzero;stroke:none"
       d="m 220.965,36.2383 -1.311,0 c -0.095,0 -0.133,0.0383 -0.095,0.209 l 0.076,0.5703 c 0.019,0.114 0.076,0.1328 0.228,0.1328 l 1.102,0 0,0.3601 c 0,1.8813 0.531,3.1165 1.273,3.9524 1.006,1.1016 2.051,1.5012 3.116,1.5012 0.892,0 1.728,-0.3418 1.728,-1.0649 0,-0.4551 -0.494,-0.8164 -0.797,-0.8164 -0.191,0 -0.381,0.0371 -0.533,0.1137 -0.17,0.0957 -0.379,0.3418 -0.455,0.4375 -0.248,0.3035 -0.514,0.4375 -0.875,0.4375 -0.494,0 -1.006,-0.134 -1.424,-0.666 -0.703,-0.8926 -0.666,-2.545 -0.666,-3.875 l 0,-0.3801 2.299,0 c 0.133,0 0.152,-0.1145 0.133,-0.1902 l -0.094,-0.6274 c -0.02,-0.0762 -0.096,-0.0945 -0.248,-0.0945 l -2.09,0 0,-1.6903 c 0,-2.2421 0,-3.9906 0.02,-4.1996 0.039,-0.3218 0.095,-0.4929 0.494,-0.4929 l 1.082,0 c 0.172,0 0.209,-0.0379 0.209,-0.1512 l 0,-0.3051 c 0,-0.1519 -0.037,-0.2281 -0.133,-0.2281 -0.113,0 -0.816,0.0574 -2.279,0.0574 -1.045,0 -2.014,-0.0574 -2.166,-0.0574 -0.114,0 -0.151,0.0391 -0.151,0.1336 l 0,0.418 c 0,0.0949 0.037,0.1328 0.19,0.1328 l 0.912,0 c 0.359,0 0.435,0.2273 0.455,0.6648 l 0,5.718" /><path
       inkscape:connector-curvature="0"
       id="path56"
       style="fill:#ffcc00;fill-opacity:1;fill-rule:nonzero;stroke:none"
       d="m 234.17,36.5051 c 0.152,0 2.184,0.0762 2.412,0.1133 0.551,0.0957 0.703,0.2468 0.873,0.8359 0.059,0.1895 0.135,0.5699 0.152,0.9312 0,0.0942 0.057,0.1333 0.133,0.1333 l 0.477,-0.02 c 0.094,0 0.133,-0.0758 0.113,-0.1519 -0.057,-0.3227 -0.057,-1.8813 -0.057,-2.1653 0,-0.6648 0.077,-1.5769 0.114,-1.9753 0,-0.0958 -0.037,-0.1333 -0.114,-0.1528 l -0.418,-0.0562 c -0.095,-0.02 -0.132,0.0371 -0.152,0.1707 -0.039,0.2468 -0.152,0.6836 -0.209,0.8925 -0.113,0.3997 -0.322,0.6844 -0.816,0.7415 -0.893,0.0945 -2.205,0.0945 -2.508,0.0945 l 0,-1.1777 c 0,-1.0262 0.037,-2.868 0.037,-3.2493 0.02,-0.9871 0.494,-1.3672 1.084,-1.4812 0.379,-0.075 0.93,-0.1328 1.404,-0.1328 0.325,0 1.274,0.0183 1.672,0.0578 0.324,0.0371 1.16,0.2461 1.654,0.6637 0.227,0.1898 1.292,1.5585 1.557,1.9953 0.057,0.0949 0.115,0.1711 0.229,0.114 l 0.302,-0.1718 c 0.096,-0.0567 0.096,-0.1129 0.039,-0.2657 l -1.007,-2.7925 c -0.057,-0.1704 -0.19,-0.2852 -0.418,-0.2852 -0.094,0 -0.512,0.0191 -1.653,0.0391 -1.138,0 -2.982,0.0183 -5.945,0.0183 -0.703,0 -1.234,-0.0183 -1.615,-0.0183 -0.399,-0.02 -0.647,-0.0391 -0.817,-0.0391 -0.115,0 -0.172,0.0391 -0.172,0.1336 l 0,0.5129 c 0,0.0762 0.057,0.0957 0.192,0.0957 l 0.76,0 c 0.873,0 0.949,0.1328 0.949,0.8347 l 0,6.3641 c 0,1.5766 -0.039,3.9516 -0.057,4.1418 -0.076,0.6082 -0.265,0.741 -0.969,0.741 l -0.683,0 c -0.096,0 -0.152,0.0188 -0.152,0.1328 l 0,0.5129 c 0,0.0574 0.037,0.0949 0.132,0.0949 0.418,0 1.082,-0.057 2.336,-0.057 l 0.836,0 c 1.881,0 3.762,0.0195 5.643,0.0195 0.305,0 0.664,0.0375 0.76,0.0375 0.095,0 0.132,-0.0375 0.152,-0.0949 0.076,-0.2668 0.912,-2.8679 0.969,-3.0586 0.019,-0.0761 0.019,-0.1328 -0.057,-0.1711 l -0.285,-0.1519 c -0.057,-0.0371 -0.133,0.0191 -0.152,0.0562 -0.038,0.0766 -1.444,1.8813 -1.901,2.1661 -0.398,0.266 -0.93,0.4945 -1.443,0.5136 l -3.381,0.0766 0,-5.5664" /><path
       inkscape:connector-curvature="0"
       id="path58"
       style="fill:#ffcc00;fill-opacity:1;fill-rule:nonzero;stroke:none"
       d="m 250.268,30.2551 c 0,-0.3047 0.17,-0.3996 0.418,-0.3996 l 0.607,0 c 0.172,0 0.209,-0.0575 0.209,-0.1707 l 0,-0.3047 c 0,-0.1328 -0.037,-0.209 -0.152,-0.209 -0.133,0 -0.721,0.0574 -1.805,0.0574 -0.969,0 -1.576,-0.0574 -1.709,-0.0574 -0.113,0 -0.152,0.0574 -0.152,0.209 l 0,0.3047 c 0,0.1328 0.056,0.1707 0.248,0.1707 l 0.55,0 c 0.209,0 0.36,0.0949 0.379,0.4367 0.02,0.4937 0.039,1.1016 0.039,1.5957 l 0,2.5074 c 0,0.7602 0,1.311 -0.552,1.7102 -0.455,0.3418 -0.91,0.3418 -1.387,0.3418 -0.303,0 -0.969,-0.1328 -1.537,-0.741 -0.381,-0.418 -0.438,-0.9297 -0.438,-1.2915 l 0,-3.9324 c 0,-0.5129 0.057,-0.6269 0.455,-0.6269 l 0.475,0 c 0.152,0 0.191,-0.0575 0.191,-0.1907 l 0,-0.3218 c 0,-0.1145 -0.039,-0.1719 -0.132,-0.1719 -0.133,0 -0.647,0.0574 -1.655,0.0574 -0.968,0 -1.576,-0.0574 -1.689,-0.0574 -0.096,0 -0.133,0.0574 -0.133,0.1719 l 0,0.3418 c 0,0.1132 0.037,0.1707 0.19,0.1707 l 0.55,0 c 0.246,0 0.381,0.0578 0.381,0.38 l 0,4.4454 c 0,0.5703 -0.305,0.8921 -0.779,1.1211 l -0.152,0.0757 c -0.133,0.0571 -0.153,0.1133 -0.153,0.1703 l 0,0.0958 c 0,0.0945 0.076,0.1523 0.172,0.189 l 1.633,0.9121 c 0.152,0.0766 0.265,0.1328 0.342,0.1328 0.095,0 0.132,-0.0757 0.152,-0.2273 l 0.133,-1.1594 0.039,0 c 0.551,0.6836 1.652,1.3867 2.601,1.3867 0.571,0 1.159,-0.1132 1.616,-0.4175 0.57,-0.3789 1.045,-1.3301 1.045,-1.8047 l 0,-4.9004" /><path
       inkscape:connector-curvature="0"
       id="path60"
       style="fill:#ffcc00;fill-opacity:1;fill-rule:nonzero;stroke:none"
       d="m 257.602,34.7188 c 0,0.8359 -0.17,1.3292 -0.514,1.7097 -0.246,0.2461 -0.627,0.4184 -0.91,0.4184 -0.438,0 -0.895,-0.0766 -1.35,-0.5324 -0.607,-0.6457 -0.683,-1.5196 -0.683,-2.2415 0,-0.646 0.209,-1.2351 0.607,-1.6531 0.342,-0.323 0.684,-0.4746 1.141,-0.4746 1.291,0 1.709,1.5774 1.709,2.7735 z m 1.767,-8.0926 c 0,1.1211 -0.855,1.9754 -2.756,1.8426 l -1.822,-0.1336 c -0.59,-0.1516 -1.521,-0.7969 -1.521,-1.8235 0,-0.4746 0.361,-1.0437 0.742,-1.3105 0.627,-0.4364 1.31,-0.5321 2.658,-0.5321 0.703,0 2.793,0.4938 2.699,1.9571 z M 253.1,24.6691 c -0.684,0.418 -0.969,0.9118 -0.969,1.5387 0,1.0649 1.082,1.8813 1.994,2.2793 l 0,0.0766 c -0.797,0.1707 -1.273,0.7593 -1.273,1.3301 0,0.9121 1.044,1.5574 1.711,1.8042 l 0,0.0383 c -0.743,0.3235 -1.768,1.1961 -1.768,2.8875 0,1.2348 1.101,2.7539 3.248,2.7539 1.445,0 2.205,-0.8726 2.395,-1.1011 0.513,0.3613 1.158,0.741 1.785,0.741 0.627,0 0.931,-0.418 0.892,-0.7981 0,-0.3609 -0.302,-0.7027 -0.74,-0.7027 -0.322,0 -0.512,0.152 -0.664,0.2852 -0.115,0.0757 -0.248,0.1707 -0.4,0.1707 -0.133,0 -0.36,0 -0.608,-0.1141 0.152,-0.3801 0.285,-0.7981 0.285,-1.4438 0,-0.741 -0.209,-1.4628 -0.703,-2.0515 -0.494,-0.552 -1.576,-0.95 -2.203,-0.95 -0.418,0 -0.684,0.0191 -0.969,0.0957 -0.381,-0.1527 -1.008,-0.5332 -1.008,-1.0649 0,-0.7793 0.952,-0.7214 2.223,-0.6461 1.559,0.0758 2.508,-0.0937 3.268,-0.6835 0.818,-0.6079 0.912,-1.3672 0.931,-1.8235 0,-0.8933 -0.322,-1.634 -1.273,-2.3371 -0.494,-0.3609 -1.633,-0.8918 -3.248,-0.8918 -0.912,0 -1.994,0.0938 -2.906,0.607" /><path
       inkscape:connector-curvature="0"
       id="path62"
       style="fill:#ffcc00;fill-opacity:1;fill-rule:nonzero;stroke:none"
       d="m 262.162,40.5508 c 0,0.4758 0.399,0.9875 1.158,0.9875 0.666,0 0.989,-0.5117 0.989,-0.9297 0,-0.4941 -0.342,-1.0449 -1.102,-1.0449 -0.418,0 -1.045,0.3789 -1.045,0.9871 z m 0.856,-5.7942 c 0,0.6465 -0.116,0.9883 -1.065,1.1399 -0.133,0.0183 -0.17,0.0578 -0.17,0.1328 l 0,0.1711 c 0,0.0562 0.037,0.0957 0.133,0.1324 0.607,0.2285 1.328,0.5324 2.051,0.9317 0.152,0.0761 0.248,0.1132 0.361,0.1132 0.096,0 0.113,-0.0945 0.096,-0.2273 -0.039,-0.3234 -0.039,-1.5203 -0.039,-3.0969 l 0,-2.0699 c 0,-0.7414 0,-1.4262 0.019,-1.6352 0.037,-0.3601 0.094,-0.4929 0.303,-0.4929 l 0.875,0 c 0.152,0 0.189,-0.0575 0.189,-0.1707 l 0,-0.3235 c 0,-0.1328 -0.037,-0.1902 -0.169,-0.1902 -0.153,0 -1.028,0.0574 -1.825,0.0574 -1.101,0 -1.843,-0.0574 -2.052,-0.0574 -0.094,0 -0.151,0.0391 -0.151,0.1519 l 0,0.3813 c 0,0.1133 0.057,0.1512 0.19,0.1512 l 0.929,0 c 0.209,0 0.286,0.0761 0.305,0.38 0.02,0.5704 0.02,1.1583 0.02,1.7286 l 0,2.7925" /><path
       inkscape:connector-curvature="0"
       id="path64"
       style="fill:#ffcc00;fill-opacity:1;fill-rule:nonzero;stroke:none"
       d="m 274.662,30.2551 c 0,-0.3047 0.172,-0.3996 0.418,-0.3996 l 0.609,0 c 0.17,0 0.209,-0.0575 0.209,-0.1707 l 0,-0.3047 c 0,-0.1328 -0.039,-0.209 -0.152,-0.209 -0.133,0 -0.723,0.0574 -1.805,0.0574 -0.968,0 -1.578,-0.0574 -1.711,-0.0574 -0.113,0 -0.15,0.0574 -0.15,0.209 l 0,0.3047 c 0,0.1328 0.057,0.1707 0.246,0.1707 l 0.551,0 c 0.209,0 0.361,0.0949 0.381,0.4367 0.017,0.4937 0.037,1.1016 0.037,1.5957 l 0,2.5074 c 0,0.7602 0,1.311 -0.551,1.7102 -0.455,0.3418 -0.912,0.3418 -1.387,0.3418 -0.304,0 -0.968,-0.1328 -1.539,-0.741 -0.379,-0.418 -0.437,-0.9297 -0.437,-1.2915 l 0,-3.9324 c 0,-0.5129 0.058,-0.6269 0.457,-0.6269 l 0.475,0 c 0.152,0 0.189,-0.0575 0.189,-0.1907 l 0,-0.3218 c 0,-0.1145 -0.037,-0.1719 -0.133,-0.1719 -0.133,0 -0.646,0.0574 -1.652,0.0574 -0.969,0 -1.576,-0.0574 -1.692,-0.0574 -0.093,0 -0.132,0.0574 -0.132,0.1719 l 0,0.3418 c 0,0.1132 0.039,0.1707 0.189,0.1707 l 0.553,0 c 0.246,0 0.379,0.0578 0.379,0.38 l 0,4.4454 c 0,0.5703 -0.305,0.8921 -0.78,1.1211 l -0.152,0.0757 c -0.133,0.0571 -0.15,0.1133 -0.15,0.1703 l 0,0.0958 c 0,0.0945 0.076,0.1523 0.17,0.189 l 1.634,0.9121 c 0.153,0.0766 0.266,0.1328 0.342,0.1328 0.094,0 0.133,-0.0757 0.152,-0.2273 l 0.133,-1.1594 0.037,0 c 0.551,0.6836 1.653,1.3867 2.604,1.3867 0.568,0 1.158,-0.1132 1.613,-0.4175 0.571,-0.3789 1.045,-1.3301 1.045,-1.8047 l 0,-4.9004" /><path
       inkscape:connector-curvature="0"
       id="path66"
       style="fill:#ffcc00;fill-opacity:1;fill-rule:nonzero;stroke:none"
       d="m 281.465,34.8516 c 0.361,0 0.514,0.0949 0.514,0.2668 0,0.4363 -0.229,1.6902 -1.463,1.6902 -0.836,0 -1.635,-0.552 -1.995,-1.957 l 2.944,0 z m -3.02,-0.5696 c -0.039,-0.1715 -0.056,-0.4754 -0.056,-0.9121 0,-1.8609 1.177,-3.2676 2.697,-3.2676 1.158,0 1.975,0.6645 2.299,1.2915 0.037,0.0757 0.113,0.1152 0.17,0.0957 l 0.248,-0.1332 c 0.056,-0.0196 0.093,-0.0758 0,-0.2848 -0.344,-0.7602 -1.33,-2.0703 -3.022,-2.0703 -1.082,0 -2.279,0.3218 -2.982,1.3472 -0.664,0.97 -0.836,1.6719 -0.836,3.0024 0,0.741 0.189,2.0137 1.197,3.0215 0.817,0.8355 1.766,1.0054 2.717,1.0054 2.184,0 2.791,-2.0507 2.791,-2.7918 0,-0.2668 -0.227,-0.3039 -0.531,-0.3039 l -4.692,0" /><path
       inkscape:connector-curvature="0"
       id="path68"
       style="fill:#ffcc00;fill-opacity:1;fill-rule:nonzero;stroke:none"
       d="m 289.559,34.8516 c 0.361,0 0.513,0.0949 0.513,0.2668 0,0.4363 -0.228,1.6902 -1.463,1.6902 -0.836,0 -1.632,-0.552 -1.994,-1.957 l 2.944,0 z m -3.02,-0.5696 c -0.039,-0.1715 -0.057,-0.4754 -0.057,-0.9121 0,-1.8609 1.178,-3.2676 2.698,-3.2676 1.158,0 1.974,0.6645 2.299,1.2915 0.037,0.0757 0.113,0.1152 0.169,0.0957 l 0.248,-0.1332 c 0.057,-0.0196 0.094,-0.0758 0,-0.2848 -0.341,-0.7602 -1.33,-2.0703 -3.021,-2.0703 -1.082,0 -2.279,0.3218 -2.982,1.3472 -0.664,0.97 -0.836,1.6719 -0.836,3.0024 0,0.741 0.191,2.0137 1.197,3.0215 0.816,0.8355 1.767,1.0054 2.717,1.0054 2.183,0 2.793,-2.0507 2.793,-2.7918 0,-0.2668 -0.229,-0.3039 -0.534,-0.3039 l -4.691,0" /><path
       inkscape:connector-curvature="0"
       id="path70"
       style="fill:#ffcc00;fill-opacity:1;fill-rule:nonzero;stroke:none"
       d="m 294.291,34.282 c 0,0.9692 -0.152,1.1582 -0.684,1.4438 l -0.361,0.189 c -0.113,0.0395 -0.152,0.0579 -0.152,0.1332 l 0,0.1153 c 0,0.075 0.039,0.1133 0.152,0.1695 l 1.881,0.9692 c 0.113,0.0574 0.189,0.0757 0.266,0.0757 0.113,0 0.132,-0.1132 0.132,-0.2273 l 0.096,-1.3113 0.076,0 c 0.569,0.875 1.463,1.6531 2.28,1.6531 0.646,0 0.968,-0.3992 0.968,-0.8359 0,-0.5508 -0.457,-0.9305 -0.799,-0.9305 -0.208,0 -0.398,0.0762 -0.55,0.1519 -0.153,0.095 -0.379,0.1516 -0.627,0.1516 -0.303,0 -0.797,-0.1902 -1.121,-0.798 -0.114,-0.2086 -0.19,-0.5504 -0.19,-0.6075 l 0,-3.9898 c 0,-0.5879 0.133,-0.7785 0.533,-0.7785 l 0.893,0 c 0.113,0 0.133,-0.0575 0.133,-0.1707 l 0,-0.3418 c 0,-0.1145 -0.02,-0.1719 -0.096,-0.1719 -0.113,0 -0.988,0.0574 -2.014,0.0574 -1.177,0 -1.974,-0.0574 -2.089,-0.0574 -0.077,0 -0.114,0.0391 -0.114,0.1902 l 0,0.3235 c 0,0.1328 0.037,0.1707 0.209,0.1707 l 0.741,0 c 0.285,0 0.417,0.114 0.417,0.3601 0.02,0.6274 0.02,1.2934 0.02,2.2805 l 0,1.7859" /><path
       inkscape:connector-curvature="0"
       id="path72"
       style="fill:#ffcc00;fill-opacity:1;fill-rule:nonzero;stroke:none"
       d="m 300.199,40.5508 c 0,0.4758 0.401,0.9875 1.16,0.9875 0.664,0 0.987,-0.5117 0.987,-0.9297 0,-0.4941 -0.342,-1.0449 -1.102,-1.0449 -0.418,0 -1.045,0.3789 -1.045,0.9871 z m 0.856,-5.7942 c 0,0.6465 -0.114,0.9883 -1.065,1.1399 -0.133,0.0183 -0.17,0.0578 -0.17,0.1328 l 0,0.1711 c 0,0.0562 0.037,0.0957 0.133,0.1324 0.608,0.2285 1.33,0.5324 2.051,0.9317 0.152,0.0761 0.248,0.1132 0.361,0.1132 0.096,0 0.114,-0.0945 0.096,-0.2273 -0.039,-0.3234 -0.039,-1.5203 -0.039,-3.0969 l 0,-2.0699 c 0,-0.7414 0,-1.4262 0.019,-1.6352 0.038,-0.3601 0.096,-0.4929 0.305,-0.4929 l 0.873,0 c 0.152,0 0.19,-0.0575 0.19,-0.1707 l 0,-0.3235 c 0,-0.1328 -0.038,-0.1902 -0.17,-0.1902 -0.153,0 -1.026,0.0574 -1.825,0.0574 -1.101,0 -1.841,-0.0574 -2.05,-0.0574 -0.096,0 -0.153,0.0391 -0.153,0.1519 l 0,0.3813 c 0,0.1133 0.057,0.1512 0.19,0.1512 l 0.931,0 c 0.209,0 0.286,0.0761 0.303,0.38 0.02,0.5704 0.02,1.1583 0.02,1.7286 l 0,2.7925" /><path
       inkscape:connector-curvature="0"
       id="path74"
       style="fill:#ffcc00;fill-opacity:1;fill-rule:nonzero;stroke:none"
       d="m 312.701,30.2551 c 0,-0.3047 0.17,-0.3996 0.418,-0.3996 l 0.608,0 c 0.171,0 0.209,-0.0575 0.209,-0.1707 l 0,-0.3047 c 0,-0.1328 -0.038,-0.209 -0.153,-0.209 -0.133,0 -0.72,0.0574 -1.804,0.0574 -0.969,0 -1.577,-0.0574 -1.709,-0.0574 -0.116,0 -0.153,0.0574 -0.153,0.209 l 0,0.3047 c 0,0.1328 0.057,0.1707 0.246,0.1707 l 0.551,0 c 0.209,0 0.361,0.0949 0.381,0.4367 0.019,0.4937 0.037,1.1016 0.037,1.5957 l 0,2.5074 c 0,0.7602 0,1.311 -0.551,1.7102 -0.455,0.3418 -0.912,0.3418 -1.386,0.3418 -0.303,0 -0.969,-0.1328 -1.54,-0.741 -0.378,-0.418 -0.435,-0.9297 -0.435,-1.2915 l 0,-3.9324 c 0,-0.5129 0.057,-0.6269 0.455,-0.6269 l 0.475,0 c 0.152,0 0.191,-0.0575 0.191,-0.1907 l 0,-0.3218 c 0,-0.1145 -0.039,-0.1719 -0.133,-0.1719 -0.135,0 -0.646,0.0574 -1.654,0.0574 -0.969,0 -1.576,-0.0574 -1.69,-0.0574 -0.095,0 -0.134,0.0574 -0.134,0.1719 l 0,0.3418 c 0,0.1132 0.039,0.1707 0.191,0.1707 l 0.551,0 c 0.246,0 0.379,0.0578 0.379,0.38 l 0,4.4454 c 0,0.5703 -0.303,0.8921 -0.778,1.1211 l -0.152,0.0757 c -0.133,0.0571 -0.152,0.1133 -0.152,0.1703 l 0,0.0958 c 0,0.0945 0.076,0.1523 0.17,0.189 l 1.634,0.9121 c 0.153,0.0766 0.266,0.1328 0.342,0.1328 0.096,0 0.133,-0.0757 0.153,-0.2273 l 0.132,-1.1594 0.038,0 c 0.552,0.6836 1.654,1.3867 2.603,1.3867 0.57,0 1.158,-0.1132 1.615,-0.4175 0.571,-0.3789 1.045,-1.3301 1.045,-1.8047 l 0,-4.9004" /><path
       inkscape:connector-curvature="0"
       id="path76"
       style="fill:#ffcc00;fill-opacity:1;fill-rule:nonzero;stroke:none"
       d="m 320.035,34.7188 c 0,0.8359 -0.17,1.3292 -0.512,1.7097 -0.248,0.2461 -0.627,0.4184 -0.912,0.4184 -0.437,0 -0.892,-0.0766 -1.349,-0.5324 -0.608,-0.6457 -0.684,-1.5196 -0.684,-2.2415 0,-0.646 0.209,-1.2351 0.608,-1.6531 0.341,-0.323 0.683,-0.4746 1.14,-0.4746 1.291,0 1.709,1.5774 1.709,2.7735 z m 1.768,-8.0926 c 0,1.1211 -0.856,1.9754 -2.756,1.8426 l -1.822,-0.1336 c -0.59,-0.1516 -1.52,-0.7969 -1.52,-1.8235 0,-0.4746 0.359,-1.0437 0.74,-1.3105 0.627,-0.4364 1.311,-0.5321 2.66,-0.5321 0.702,0 2.791,0.4938 2.698,1.9571 z m -6.27,-1.9571 c -0.683,0.418 -0.969,0.9118 -0.969,1.5387 0,1.0649 1.082,1.8813 1.995,2.2793 l 0,0.0766 c -0.797,0.1707 -1.272,0.7593 -1.272,1.3301 0,0.9121 1.043,1.5574 1.709,1.8042 l 0,0.0383 c -0.74,0.3235 -1.767,1.1961 -1.767,2.8875 0,1.2348 1.101,2.7539 3.25,2.7539 1.443,0 2.203,-0.8726 2.392,-1.1011 0.514,0.3613 1.158,0.741 1.785,0.741 0.627,0 0.932,-0.418 0.895,-0.7981 0,-0.3609 -0.305,-0.7027 -0.742,-0.7027 -0.323,0 -0.512,0.152 -0.664,0.2852 -0.116,0.0757 -0.249,0.1707 -0.399,0.1707 -0.135,0 -0.361,0 -0.609,-0.1141 0.152,-0.3801 0.285,-0.7981 0.285,-1.4438 0,-0.741 -0.209,-1.4628 -0.703,-2.0515 -0.494,-0.552 -1.576,-0.95 -2.203,-0.95 -0.418,0 -0.684,0.0191 -0.969,0.0957 -0.381,-0.1527 -1.008,-0.5332 -1.008,-1.0649 0,-0.7793 0.951,-0.7214 2.223,-0.6461 1.558,0.0758 2.508,-0.0937 3.267,-0.6835 0.819,-0.6079 0.912,-1.3672 0.932,-1.8235 0,-0.8933 -0.322,-1.634 -1.273,-2.3371 -0.495,-0.3609 -1.633,-0.8918 -3.249,-0.8918 -0.912,0 -1.994,0.0938 -2.906,0.607" /></g></svg>